<svg xmlns="http://www.w3.org/2000/svg" viewBox="0 0 320 180" role="img" aria-label="A dexterous hand at the latch of a door">
  <rect width="320" height="180" rx="12" fill="#ecebe3"/>
  <g fill="none" stroke="#3d3d3a" stroke-width="4" stroke-linecap="round" stroke-linejoin="round">

    <rect x="180" y="30" width="90" height="120" rx="6" fill="#faf9f5"/>
    <path d="M180 30 v120" stroke-width="6"/>
    <circle cx="205" cy="95" r="7" fill="#c96442"/>
    <path d="M60 120 q-10 -40 20 -50 l8 -20 M80 70 l6 -24 M92 72 l10 -22 M104 78 l14 -14 M110 90 l22 -4" stroke-width="7"/>
    <path d="M60 120 q-10 -40 20 -50 l8 -20 M80 70 l6 -24 M92 72 l10 -22 M104 78 l14 -14 M110 90 l22 -4" stroke="#e0865f" stroke-width="3"/>
    <path d="M60 120 q40 20 80 -10" stroke-width="7"/><path d="M60 120 q40 20 80 -10" stroke="#e0865f" stroke-width="3"/>
  </g>
</svg>
