<svg xmlns="http://www.w3.org/2000/svg" xmlns:xlink="http://www.w3.org/1999/xlink" version="1.1" width="435" height="21" viewBox="0 0 326.302 15.94">
<defs>
<path id="font_1_7" d="M.45599366 .27534486C.45599366 .3703766 .3939972 .44140626 .30299378 .44140626 .17098999 .44140626 .040985109 .29734803 .040985109 .15628052 .040985109 .06124878 .102996829-.009765625 .19400025-.009765625 .32699586-.009765625 .45599366 .13427735 .45599366 .27534486M.19499207 .010223389C.14498902 .010223389 .10798645 .050247194 .10798645 .120269779 .10798645 .16629029 .13198853 .26834107 .1599884 .31835938 .20498657 .39538575 .26098634 .42140199 .3019867 .42140199 .35099793 .42140199 .3889923 .38137818 .3889923 .3113556 .3889923 .2713318 .36799623 .16429138 .32998658 .103271488 .2889862 .036239625 .23399353 .010223389 .19499207 .010223389Z"/>
<path id="font_2_2" d="M.22099304 .3976593H.31900025C.33799745 .3976593 .34999085 .3976593 .34999085 .4166565 .34999085 .43066407 .33699037 .43066407 .31999208 .43066407H.22898865L.2649994 .57250979C.2689972 .58750918 .2689972 .5924988 .2689972 .5934906 .2689972 .6144867 .25299073 .6244812 .23599243 .6244812 .20199585 .6244812 .19499207 .5974884 .18399048 .552536L.15299988 .43066407H.056991579C.037994386 .43066407 .024993897 .43066407 .024993897 .4116516 .024993897 .3976593 .037994386 .3976593 .054992677 .3976593H.14498902L.084991458 .15802002C.07899475 .13305664 .069992069 .09811401 .069992069 .084121707 .069992069 .024215699 .11898804-.009765625 .17199707-.009765625 .2789917-.009765625 .33999635 .13105774 .33999635 .14303589 .33999635 .15402222 .33099366 .15602112 .32499696 .15602112 .31399537 .15602112 .31298829 .15202332 .30599977 .13705445 .28599549 .08912659 .23599243 .018234253 .1749878 .018234253 .1539917 .018234253 .14199829 .032211305 .14199829 .06515503 .14199829 .084121707 .14498902 .09510803 .147995 .10809326L.22099304 .3976593Z"/>
<path id="font_3_2" d="M.7220001 .33418275C.7220001 .3561859 .71598818 .36618043 .70799258 .36618043 .7029877 .36618043 .69499209 .35917665 .69400027 .34017945 .6899872 .24397278 .6239929 .18881226 .55400088 .18881226 .4909973 .18881226 .44299317 .2319336 .3939972 .2750702 .34298707 .32118226 .29100038 .3671875 .22299195 .3671875 .11399841 .3671875 .054992677 .25701905 .054992677 .165802 .054992677 .13380432 .067993167 .13380432 .068984989 .13380432 .07998657 .13380432 .08299255 .1538086 .08299255 .15679932 .08699036 .26704408 .1619873 .3111725 .22299195 .3111725 .28599549 .3111725 .33399964 .26805116 .3829956 .22491455 .43399049 .17880249 .48599244 .1328125 .55400088 .1328125 .6629944 .1328125 .7220001 .2429657 .7220001 .33418275Z"/>
<path id="font_1_3" d="M.7259979 .43788148C.7259979 .60302737 .6179962 .70410159 .47799684 .70410159 .2639923 .70410159 .04798889 .47392274 .04798889 .24272156 .04798889 .08558655 .1519928-.021484375 .29699708-.021484375 .5069885-.021484375 .7259979 .19767761 .7259979 .43788148M.30299378 .0015106201C.22099304 .0015106201 .13398743 .061553956 .13398743 .21769715 .13398743 .30877687 .16699219 .457901 .24899292 .5579834 .32199098 .6460724 .4059906 .6820984 .47299195 .6820984 .5609894 .6820984 .6459961 .618042 .6459961 .47392274 .6459961 .38484193 .60798647 .24571228 .54100039 .15063477 .46798707 .048553468 .3769989 .0015106201 .30299378 .0015106201Z"/>
<path id="font_2_1" d="M.47898866 .4910736C.47898866 .61608889 .43099977 .70410159 .34799195 .70410159 .19898987 .70410159 .04399109 .42607118 .04399109 .20314026 .04399109 .107177738 .07699585-.009765625 .17599488-.009765625 .32199098-.009765625 .47898866 .2611084 .47898866 .4910736M.1559906 .3640747C.20298767 .5660858 .2849884 .6760864 .34700013 .6760864 .40699769 .6760864 .40699769 .5690918 .40699769 .55007937 .40699769 .4940796 .3889923 .41307069 .3769989 .3640747H.1559906M.36799623 .33007813C.32099916 .12916565 .23899842 .018234253 .1769867 .018234253 .12298584 .018234253 .116989139 .09819031 .116989139 .14416504 .116989139 .20713806 .13598633 .28808595 .14698792 .33007813H.36799623Z"/>
<path id="font_4_1" d="M.18899536 .09024048C.21998596 .12025452 .25498963 .14927674 .30799867 .18930054 .37599183 .24133301 .41600038 .27235414 .45899964 .31237794 .5159912 .36439515 .55400088 .41740418 .55400088 .42739869 .55400088 .44140626 .5399933 .44140626 .5359955 .44140626 .526001 .44140626 .522995 .4393921 .5159912 .42840577 .49798585 .4024048 .47099305 .372406 .43899537 .372406 .4149933 .372406 .3939972 .3894043 .3809967 .40040589 .35499574 .4223938 .33198548 .44140626 .29499818 .44140626 .21099854 .44140626 .15499878 .35339356 .15499878 .32337953 .15499878 .31237794 .16299439 .30836488 .17298889 .30836488 .18598938 .30836488 .18899536 .31437684 .19198609 .32237245 .20599365 .35739137 .2619934 .36039735 .2829895 .36039735 .30899049 .36039735 .33499146 .35539247 .35499574 .35038758 .4059906 .34039308 .4169922 .34039308 .43899537 .339386 .41600038 .31736756 .3919983 .29536439 .32699586 .24633789 .24598694 .18429566 .21598816 .1612854 .17399597 .12225342 .12298584 .07623291 .07499695 .017227173 .07499695 .0042266848 .07499695-.009765625 .08999634-.009765625 .09399414-.009765625 .10398865-.009765625 .10598755-.0077667238 .11199951 .00022888184 .1519928 .053222658 .19099427 .05921936 .20698548 .05921936 .23098755 .05921936 .24798584 .04623413 .2659912 .031219483 .29599 .008224487 .31698609-.009765625 .35299684-.009765625 .46398927-.009765625 .5349884 .11225891 .5349884 .14826966 .5349884 .15727234 .526001 .16227722 .5159912 .16227722 .5019989 .16227722 .5 .15628052 .49699403 .14627075 .47698976 .0912323 .41099549 .07122803 .3639984 .07122803 .33999635 .07122803 .31599427 .07623291 .2899933 .08123779 .2599945 .0872345 .23599243 .09223938 .21199036 .09223938 .20698548 .09223938 .19799805 .09223938 .18899536 .09024048Z"/>
<path id="font_5_1" d="M.32499696-.24298096C.32499696-.23999024 .32499696-.23799134 .30799867-.22097779 .20799256-.11997986 .1519928 .045013429 .1519928 .24900818 .1519928 .44299317 .19898987 .60998538 .31498719 .7279968 .32499696 .7369995 .32499696 .7389984 .32499696 .74198916 .32499696 .74798586 .31999208 .75 .31599427 .75 .30299378 .75 .22099304 .6779938 .17199707 .5799866 .12098694 .47898866 .09799194 .37199403 .09799194 .24900818 .09799194 .16000366 .11199951 .041015626 .1639862-.06599426 .22299195-.18598938 .30499269-.25097657 .31599427-.25097657 .31999208-.25097657 .32499696-.24897766 .32499696-.24298096Z"/>
<path id="font_3_1" d="M.19198609 .2502594C.19198609 .2792511 .16799927 .30325318 .13899231 .30325318 .10998535 .30325318 .085998538 .2792511 .085998538 .2502594 .085998538 .22125244 .10998535 .19726563 .13899231 .19726563 .16799927 .19726563 .19198609 .22125244 .19198609 .2502594Z"/>
<path id="font_3_3" d="M.15899658 .71398928C.15899658 .7319946 .15899658 .75 .13899231 .75 .11898804 .75 .11898804 .7319946 .11898804 .71398928V-.21400452C.11898804-.23200989 .11898804-.25 .13899231-.25 .15899658-.25 .15899658-.23200989 .15899658-.21400452V.71398928Z"/>
<path id="font_1_9" d="M.22799683 .2002716C.24499512 .19728089 .27198792 .19128418 .27799989 .19029236 .29100038 .18629456 .33599855 .1703186 .33599855 .12234497 .33599855 .09135437 .30799867 .010223389 .19198609 .010223389 .17098999 .010223389 .09599304 .01322937 .07598877 .068359378 .115997318 .06333923 .13598633 .09434509 .13598633 .11634827 .13598633 .13734436 .12199402 .14834595 .101989749 .14834595 .07998657 .14834595 .050994874 .13134766 .050994874 .08634949 .050994874 .027267456 .11099243-.009765625 .19099427-.009765625 .34298707-.009765625 .3880005 .10235596 .3880005 .15434265 .3880005 .16932678 .3880005 .19728089 .35598756 .22923279 .33099366 .25320436 .30699159 .25819398 .25299073 .2691803 .22599793 .275177 .18299866 .28416444 .18299866 .32913209 .18299866 .34913636 .20098877 .42140199 .29599 .42140199 .33799745 .42140199 .3789978 .4053192 .3889923 .36914063 .34498597 .36914063 .34298707 .33113099 .34298707 .33013917 .34298707 .3091278 .3619995 .3031311 .37098695 .3031311 .3849945 .3031311 .41299439 .3141327 .41299439 .35614015 .41299439 .3982849 .375 .44140626 .29699708 .44140626 .1659851 .44140626 .1309967 .33813478 .1309967 .2971344 .1309967 .22125244 .20498657 .20527649 .22799683 .2002716Z"/>
<path id="font_5_2" d="M.28199769 .24900818C.28199769 .32499696 .27198792 .44898988 .21598816 .5649872 .15699768 .68499758 .07499695 .75 .06399536 .75 .05999756 .75 .054992677 .74798586 .054992677 .74198916 .054992677 .7389984 .054992677 .7369995 .07199097 .71998599 .17199707 .61898806 .22799683 .45399476 .22799683 .25 .22799683 .056015016 .18099976-.11099243 .06498718-.22898865 .054992677-.23799134 .054992677-.23999024 .054992677-.24298096 .054992677-.24897766 .05999756-.25097657 .06399536-.25097657 .07699585-.25097657 .15899658-.1789856 .20799256-.08099365 .25898744 .021011353 .28199769 .12901306 .28199769 .24900818Z"/>
<path id="font_1_1" d="M.19499207-.0040130617C.19499207 .053985597 .17599488 .09700012 .1349945 .09700012 .102996829 .09700012 .08699036 .070999149 .08699036 .04899597 .08699036 .026992798 .101989749 0 .13598633 0 .14898682 0 .1599884 .0039978029 .16899109 .0129852299 .17098999 .01499939 .17199707 .01499939 .17298889 .01499939 .1749878 .01499939 .1749878 .0009918213 .1749878-.0040130617 .1749878-.037078859 .16899109-.10221863 .11099243-.1673584 .099990848-.17936707 .099990848-.18136597 .099990848-.18336487 .099990848-.18836975 .10499573-.19335938 .10998535-.19335938 .117996219-.19335938 .19499207-.119262699 .19499207-.0040130617Z"/>
<path id="font_6_1" d="M.43598939 .22743225H.7299957C.74398806 .22743225 .7659912 .22743225 .7659912 .25042726 .7659912 .2734375 .74398806 .2734375 .7299957 .2734375H.43598939V.56799319C.43598939 .5819855 .43598939 .6039734 .41299439 .6039734 .3899994 .6039734 .3899994 .5819855 .3899994 .56799319V.2734375H.09498596C.08099365 .2734375 .05899048 .2734375 .05899048 .25042726 .05899048 .22743225 .08099365 .22743225 .09498596 .22743225H.3899994V-.067993167C.3899994-.08201599 .3899994-.104019168 .41299439-.104019168 .43598939-.104019168 .43598939-.08201599 .43598939-.067993167V.22743225Z"/>
<path id="font_6_2" d="M.31399537 .63708499C.31399537 .664032 .31199647 .66503909 .2849884 .66503909 .24398804 .6251831 .19099427 .6013489 .09599304 .6013489V.5683594C.12298584 .5683594 .1769867 .5683594 .23498535 .5953522V.08203125C.23498535 .04499817 .23199463 .032989503 .13699341 .032989503H.101989749V0C.14299011 .0029907227 .22898865 .0029907227 .27398683 .0029907227 .31900025 .0029907227 .4059906 .0029907227 .44699098 0V.032989503H.4119873C.31698609 .032989503 .31399537 .04499817 .31399537 .08203125V.63708499Z"/>
<path id="font_1_4" d="M.29599 .3177948H.46398927C.60198977 .3177948 .73999026 .41973878 .73999026 .53367617 .73999026 .6116333 .673996 .6826172 .5479889 .6826172H.23899842C.21998596 .6826172 .21099854 .6826172 .21099854 .66360476 .21099854 .6536102 .21998596 .6536102 .23498535 .6536102 .29599 .6536102 .29599 .6456146 .29599 .63461306 .29599 .63261416 .29599 .62661746 .2919922 .6116333L.15699768 .07395935C.147995 .038986207 .1459961 .0289917 .07598877 .0289917 .056991579 .0289917 .04699707 .0289917 .04699707 .010986328 .04699707 0 .055999757 0 .06199646 0 .08099365 0 .100997928 .0019989014 .11999512 .0019989014H.23699951C.2559967 .0019989014 .2769928 0 .29599 0 .3039856 0 .31498719 0 .31498719 .018997193 .31498719 .0289917 .30599977 .0289917 .29100038 .0289917 .23098755 .0289917 .22999573 .035980226 .22999573 .04597473 .22999573 .050979616 .23098755 .05796814 .23199463 .06297302L.29599 .3177948M.36799623 .614624C.3769989 .6516113 .3809967 .6536102 .41999818 .6536102H.5189972C.59399417 .6536102 .6559906 .6296234 .6559906 .55467227 .6559906 .5286865 .6429901 .4437256 .5970001 .39775086 .5799866 .37976075 .5319977 .34179688 .44099427 .34179688H.2999878L.36799623 .614624Z"/>
<path id="font_1_10" d="M.47399903 .40820313C.44198609 .40219117 .42999269 .3781891 .42999269 .3591919 .42999269 .33518983 .44898988 .3271942 .46299745 .3271942 .49299623 .3271942 .5139923 .3531952 .5139923 .380188 .5139923 .4223938 .46598817 .44140626 .42399598 .44140626 .36299134 .44140626 .32899476 .38119508 .31999208 .36219789 .29699708 .4373932 .23498535 .44140626 .21699524 .44140626 .114990238 .44140626 .06098938 .31021119 .06098938 .28822328 .06098938 .28422547 .06498718 .27923585 .07199097 .27923585 .07998657 .27923585 .08198547 .28523255 .083999637 .2892151 .117996219 .40019227 .18499756 .42140199 .21398926 .42140199 .25898744 .42140199 .2679901 .37919618 .2679901 .3551941 .2679901 .33319093 .2619934 .31021119 .25 .26223756L.21598816 .12535095C.20098877 .06535339 .17199707 .010223389 .11898804 .010223389 .11399841 .010223389 .08898926 .010223389 .067993167 .023330689 .10398865 .03036499 .11199951 .06036377 .11199951 .07235718 .11199951 .09236145 .09700012 .10435486 .07798767 .10435486 .053985597 .10435486 .027999878 .083358768 .027999878 .051361085 .027999878 .009231567 .07499695-.009765625 .117996219-.009765625 .1659851-.009765625 .19999695 .028366089 .22099304 .069366458 .23699951 .010223389 .2869873-.009765625 .32398988-.009765625 .42599488-.009765625 .47999574 .12135315 .47999574 .1433258 .47999574 .14833069 .47599793 .15232849 .46998597 .15232849 .46099855 .15232849 .45999146 .14732361 .45700074 .139328 .42999269 .051361085 .37199403 .010223389 .32699586 .010223389 .2919922 .010223389 .272995 .036361696 .272995 .07736206 .272995 .099365238 .2769928 .115356449 .29299928 .18130493L.32798768 .3171997C.34298707 .37719728 .3769989 .42140199 .4229889 .42140199 .4249878 .42140199 .45298768 .42140199 .47399903 .40820313Z"/>
<path id="font_1_8" d="M.3889923 .40924073C.35798646 .4032135 .34199525 .3812256 .34199525 .3592224 .34199525 .33522035 .36099244 .32722474 .375 .32722474 .40299989 .32722474 .42599488 .35121156 .42599488 .3812256 .42599488 .41329957 .394989 .44140626 .34498597 .44140626 .30499269 .44140626 .25898744 .42340089 .21699524 .36221314 .20999146 .41532899 .16999817 .44140626 .12998963 .44140626 .09098816 .44140626 .070999149 .41127015 .05899048 .3892212 .041992189 .3532257 .026992798 .2932129 .026992798 .28822328 .026992798 .28422547 .0309906 .27922059 .037994386 .27922059 .04598999 .27922059 .04699707 .2802124 .052993776 .30322267 .067993167 .3632202 .08699036 .42140199 .1269989 .42140199 .15098572 .42140199 .1579895 .40422059 .1579895 .37521363 .1579895 .3532257 .147995 .31422425 .14099121 .28321839L.11299133 .17521668C.10899353 .15621948 .09799194 .11122131 .09298706 .0932312 .085998538 .067230228 .07499695 .020233155 .07499695 .0152282719 .07499695 .0012207031 .085998538-.009765625 .100997928-.009765625 .11199951-.009765625 .1309967-.0027770997 .13699341 .017227173 .13999939 .025222779 .1769867 .17622376 .18299866 .19921875 .18798828 .22122193 .19400025 .24221802 .19898987 .2642212 .20298767 .2782135 .20698548 .29421998 .20999146 .30722047 .21299744 .31622315 .23999024 .36521913 .2649994 .3872223 .2769928 .39822389 .30299378 .42140199 .34399415 .42140199 .3600006 .42140199 .37599183 .41836549 .3889923 .40924073Z"/>
<path id="font_1_6" d="M.3909912 .37597657C.37199403 .37597657 .36299134 .37597657 .34899903 .3639679 .34298707 .358963 .33198548 .34396363 .33198548 .3279724 .33198548 .30796815 .34700013 .29597474 .3659973 .29597474 .3899994 .29597474 .4169922 .31596376 .4169922 .3559723 .4169922 .40423585 .37098695 .44140626 .3019867 .44140626 .17098999 .44140626 .039993287 .29797364 .039993287 .15609741 .039993287 .06916809 .09399414-.009765625 .19599915-.009765625 .33198548-.009765625 .41799928 .09614563 .41799928 .10913086 .41799928 .11512756 .4119873 .12013245 .4079895 .12013245 .40499879 .12013245 .4039917 .119125369 .394989 .11013794 .33099366 .02520752 .23599243 .010223389 .19799805 .010223389 .1289978 .010223389 .10699463 .07017517 .10699463 .12013245 .10699463 .15509033 .12399292 .25201417 .1599884 .31996156 .18598938 .36697389 .23999024 .42140199 .30299378 .42140199 .31599427 .42140199 .37098695 .41937257 .3909912 .37597657Z"/>
<path id="font_1_5" d="M.36799623 .61460879C.3769989 .6516113 .3809967 .6536102 .41999818 .6536102H.49198915C.5779877 .6536102 .6419983 .62760928 .6419983 .54959109 .6419983 .49858094 .6159973 .3515625 .4149933 .3515625H.3019867L.36799623 .61460879M.5069885 .33955384C.6309967 .3665619 .7279968 .44657899 .7279968 .5325928 .7279968 .6105957 .6489868 .6826172 .5099945 .6826172H.23899842C.21899414 .6826172 .20999146 .6826172 .20999146 .66360476 .20999146 .6536102 .21699524 .6536102 .23599243 .6536102 .29599 .6536102 .29599 .6456146 .29599 .63461306 .29599 .6325989 .29599 .6266022 .2919922 .6116028L.15699768 .073516849C.147995 .038513185 .1459961 .028518677 .07699585 .028518677 .053985597 .028518677 .04699707 .028518677 .04699707 .009506226 .04699707-.00048828127 .057998659-.00048828127 .06098938-.00048828127 .07899475-.00048828127 .099990848 .0015106201 .11898804 .0015106201H.23699951C.25498963 .0015106201 .27598573-.00048828127 .2939911-.00048828127 .3019867-.00048828127 .31298829-.00048828127 .31298829 .018508912 .31298829 .028518677 .3039856 .028518677 .2889862 .028518677 .22799683 .028518677 .22799683 .036514284 .22799683 .04650879 .22799683 .04751587 .22799683 .054519655 .22999573 .06251526L.29699708 .33155824H.4169922C.5119934 .33155824 .5299988 .2715454 .5299988 .23854065 .5299988 .22354126 .519989 .1845398 .5130005 .15852356 .5019989 .11251831 .49899293 .10151672 .49899293 .08251953 .49899293 .011505127 .5569916-.021484375 .6239929-.021484375 .7049866-.021484375 .73999026 .07751465 .73999026 .09152222 .73999026 .098526 .7350006 .10151672 .72898867 .10151672 .72099307 .10151672 .71899417 .09552002 .71699526 .087524417 .69299319 .01651001 .6519928-.0014953613 .6269989-.0014953613 .60198977-.0014953613 .58599856 .009506226 .58599856 .054519655 .58599856 .07852173 .59799197 .16952515 .598999 .17453003 .60398867 .2115326 .60398867 .2155304 .60398867 .22354126 .60398867 .29655458 .54499819 .32754518 .5069885 .33955384Z"/>
<path id="font_1_2" d="M.746994 .6950989C.746994 .70410159 .73999026 .70410159 .73799136 .70410159 .73599246 .70410159 .7319946 .70410159 .723999 .6940918L.6549988 .6100311C.6199951 .6700897 .5649872 .70410159 .48999024 .70410159 .27398683 .70410159 .049987794 .48492433 .049987794 .24972534 .049987794 .08258057 .16699219-.021484375 .31298829-.021484375 .3929901-.021484375 .46299745 .012512207 .5209961 .061553956 .60798647 .13461304 .6339874 .23170471 .6339874 .23971558 .6339874 .24871826 .6259918 .24871826 .6230011 .24871826 .6139984 .24871826 .61299136 .24272156 .61099246 .2387085 .5649872 .08258057 .42999269 .007507324 .32998658 .007507324 .22399903 .007507324 .13198853 .07556152 .13198853 .21769715 .13198853 .24972534 .14199829 .4238739 .25498963 .5549927 .30999757 .6190491 .4039917 .6750946 .49899293 .6750946 .60899356 .6750946 .6579895 .5840149 .6579895 .48191834 .6579895 .4559021 .6549988 .43388368 .6549988 .42988587 .6549988 .42086793 .6649933 .42086793 .66799929 .42086793 .67900088 .42086793 .6799927 .421875 .6839905 .43989564L.746994 .6950989Z"/>
<path id="font_1_11" d="M.2630005-.11172485C.23599243-.14982605 .19699097-.18411255 .147995-.18411255 .13598633-.18411255 .08799744-.18209839 .07299805-.13572693 .07598877-.13671875 .08099365-.13671875 .08299255-.13671875 .11299133-.13671875 .1329956-.11073303 .1329956-.08772278 .1329956-.06472778 .11399841-.056732179 .09899902-.056732179 .08299255-.056732179 .04798889-.068725589 .04798889-.11772156 .04798889-.16899109 .09098816-.20410156 .147995-.20410156 .24798584-.20410156 .34899903-.11172485 .3769989-.00077819827L.47499085 .38868714C.47599793 .39367677 .47799684 .39967347 .47799684 .4056549 .47799684 .4206543 .46598817 .43066407 .45098878 .43066407 .44198609 .43066407 .42099 .426651 .41299439 .39666749L.33898927 .10308838C.33399964 .085113529 .33399964 .08312988 .32598878 .072143558 .30599977 .04423523 .272995 .010223389 .22499085 .010223389 .16899109 .010223389 .1639862 .06524658 .1639862 .09225464 .1639862 .14929199 .19099427 .22631836 .21798706 .2983551 .22898865 .32736207 .23498535 .34136964 .23498535 .3613739 .23498535 .4033966 .20498657 .44140626 .1559906 .44140626 .06399536 .44140626 .026992798 .29634095 .026992798 .28834535 .026992798 .28434754 .0309906 .27934266 .037994386 .27934266 .04699707 .27934266 .04798889 .28334046 .051986696 .29734803 .07598877 .38137818 .11399841 .42140199 .15299988 .42140199 .1619873 .42140199 .1789856 .42140199 .1789856 .38838197 .1789856 .36238099 .16799927 .33335877 .15299988 .29534913 .10398865 .16429138 .10398865 .13127136 .10398865 .10726929 .10398865 .01222229 .17199707-.009765625 .22200012-.009765625 .25099183-.009765625 .2869873-.00077819827 .32199098 .036239625L.32299806 .035232545C.30799867-.023757935 .2979889-.06272888 .2630005-.11172485Z"/>
</defs>
<use data-text="o" xlink:href="#font_1_7" transform="matrix(11.9552,0,0,-11.9552,1.993,10.959)"/>
<use data-text="t" xlink:href="#font_2_2" transform="matrix(7.9701,0,0,-7.9701,7.62,12.752)"/>
<use data-text="&#x223c;" xlink:href="#font_3_2" transform="matrix(11.9552,0,0,-11.9552,14.497,10.959)"/>
<use data-text="O" xlink:href="#font_1_3" transform="matrix(11.9552,0,0,-11.9552,27.116002,10.959)"/>
<use data-text="&#x03b8;" xlink:href="#font_2_1" transform="matrix(7.9701,0,0,-7.9701,36.062,12.752)"/>
<use data-text="z" xlink:href="#font_4_1" transform="matrix(5.9776,0,0,-5.9776,40.248,10.483)"/>
<use data-text="(" xlink:href="#font_5_1" transform="matrix(11.9552,0,0,-11.9552,45.043,10.959)"/>
<use data-text="&#x00b7;" xlink:href="#font_3_1" transform="matrix(11.9552,0,0,-11.9552,49.595,10.959)"/>
<use data-text="|" xlink:href="#font_3_3" transform="matrix(11.9552,0,0,-11.9552,56.242097,10.959)"/>
<use data-text="s" xlink:href="#font_1_9" transform="matrix(11.9552,0,0,-11.9552,62.878004,10.959)"/>
<use data-text="t" xlink:href="#font_2_2" transform="matrix(7.9701,0,0,-7.9701,68.392,12.752)"/>
<use data-text=")" xlink:href="#font_5_2" transform="matrix(11.9552,0,0,-11.9552,71.948,10.959)"/>
<use data-text="," xlink:href="#font_1_1" transform="matrix(11.9552,0,0,-11.9552,76.501,10.959)"/>
<use data-text="s" xlink:href="#font_1_9" transform="matrix(11.9552,0,0,-11.9552,93.453479,10.959)"/>
<use data-text="t" xlink:href="#font_2_2" transform="matrix(7.9701,0,0,-7.9701,98.962,12.752)"/>
<use data-text="+" xlink:href="#font_6_1" transform="matrix(7.9701,0,0,-7.9701,102.02,12.752)"/>
<use data-text="1" xlink:href="#font_6_2" transform="matrix(7.9701,0,0,-7.9701,108.6033,12.752)"/>
<use data-text="&#x223c;" xlink:href="#font_3_2" transform="matrix(11.9552,0,0,-11.9552,116.659999,10.959)"/>
<use data-text="P" xlink:href="#font_1_4" transform="matrix(11.9552,0,0,-11.9552,129.27899,10.959)"/>
<use data-text="&#x03b8;" xlink:href="#font_2_1" transform="matrix(7.9701,0,0,-7.9701,136.82399,12.752)"/>
<use data-text="z" xlink:href="#font_4_1" transform="matrix(5.9776,0,0,-5.9776,141.01,10.483)"/>
<use data-text="(" xlink:href="#font_5_1" transform="matrix(11.9552,0,0,-11.9552,145.805,10.959)"/>
<use data-text="&#x00b7;" xlink:href="#font_3_1" transform="matrix(11.9552,0,0,-11.9552,150.357,10.959)"/>
<use data-text="|" xlink:href="#font_3_3" transform="matrix(11.9552,0,0,-11.9552,157.00409,10.959)"/>
<use data-text="x" xlink:href="#font_1_10" transform="matrix(11.9552,0,0,-11.9552,163.64,10.959)"/>
<use data-text="t" xlink:href="#font_2_2" transform="matrix(7.9701,0,0,-7.9701,170.29199,12.752)"/>
<use data-text=")" xlink:href="#font_5_2" transform="matrix(11.9552,0,0,-11.9552,173.849,10.959)"/>
<use data-text="," xlink:href="#font_1_1" transform="matrix(11.9552,0,0,-11.9552,178.401,10.959)"/>
<use data-text="(" xlink:href="#font_5_1" transform="matrix(11.9552,0,0,-11.9552,195.348,10.959)"/>
<use data-text="r" xlink:href="#font_1_8" transform="matrix(11.9552,0,0,-11.9552,199.901,10.959)"/>
<use data-text="t" xlink:href="#font_2_2" transform="matrix(7.9701,0,0,-7.9701,205.176,12.752)"/>
<use data-text="," xlink:href="#font_1_1" transform="matrix(11.9552,0,0,-11.9552,208.732,10.959)"/>
<use data-text="c" xlink:href="#font_1_6" transform="matrix(11.9552,0,0,-11.9552,213.98033,10.959)"/>
<use data-text="t" xlink:href="#font_2_2" transform="matrix(7.9701,0,0,-7.9701,219.01399,12.752)"/>
<use data-text=")" xlink:href="#font_5_2" transform="matrix(11.9552,0,0,-11.9552,222.56999,10.959)"/>
<use data-text="&#x223c;" xlink:href="#font_3_2" transform="matrix(11.9552,0,0,-11.9552,230.44399,10.959)"/>
<use data-text="(" xlink:href="#font_5_1" transform="matrix(11.9552,0,0,-11.9552,243.06299,10.959)"/>
<use data-text="R" xlink:href="#font_1_5" transform="matrix(11.9552,0,0,-11.9552,247.61499,10.959)"/>
<use data-text="&#x03b8;" xlink:href="#font_2_1" transform="matrix(7.9701,0,0,-7.9701,256.525,12.752)"/>
<use data-text="z" xlink:href="#font_4_1" transform="matrix(5.9776,0,0,-5.9776,260.711,10.483)"/>
<use data-text="," xlink:href="#font_1_1" transform="matrix(11.9552,0,0,-11.9552,265.506,10.959)"/>
<use data-text="C" xlink:href="#font_1_2" transform="matrix(11.9552,0,0,-11.9552,270.75434,10.959)"/>
<use data-text="&#x03b8;" xlink:href="#font_2_1" transform="matrix(7.9701,0,0,-7.9701,279.125,12.752)"/>
<use data-text="z" xlink:href="#font_4_1" transform="matrix(5.9776,0,0,-5.9776,283.311,10.483)"/>
<use data-text=")" xlink:href="#font_5_2" transform="matrix(11.9552,0,0,-11.9552,288.105,10.959)"/>
<use data-text="(" xlink:href="#font_5_1" transform="matrix(11.9552,0,0,-11.9552,292.65995,10.959)"/>
<use data-text="&#x00b7;" xlink:href="#font_3_1" transform="matrix(11.9552,0,0,-11.9552,297.21003,10.959)"/>
<use data-text="|" xlink:href="#font_3_3" transform="matrix(11.9552,0,0,-11.9552,303.85713,10.959)"/>
<use data-text="y" xlink:href="#font_1_11" transform="matrix(11.9552,0,0,-11.9552,310.493,10.959)"/>
<use data-text="t" xlink:href="#font_2_2" transform="matrix(7.9701,0,0,-7.9701,316.20103,12.752)"/>
<use data-text=")" xlink:href="#font_5_2" transform="matrix(11.9552,0,0,-11.9552,319.75703,10.959)"/>
</svg>
