<svg xmlns="http://www.w3.org/2000/svg" xmlns:xlink="http://www.w3.org/1999/xlink" version="1.1" width="648" height="399" viewBox="0 0 486.179 299.096">
<defs>
<path id="font_1_24" d="M.5009918 .14648438 .548996 0H.7029877L.45098878 .7285156H.2849884L.025985718 0H.1789856L.22799683 .14648438H.5009918M.45999146 .27148438H.269989L.36499024 .5566406 .45999146 .27148438Z"/>
<path id="font_1_11" d="M.4079895 .53982546V.45681764C.3659973 .520813 .31999208 .5488281 .2579956 .5488281 .12998963 .5488281 .033996583 .42381288 .033996583 .25668336 .033996583 .08856201 .12199402-.0234375 .25498963-.0234375 .31799317-.0234375 .35598756-.0044403078 .4079895 .05455017V-.018447876C.4079895-.083618167 .35899354-.12875366 .2889862-.12875366 .23599243-.12875366 .20098877-.10668945 .18998719-.06556702H.04499817C.04598999-.10769653 .06199646-.13676453 .09799194-.1667633 .14099121-.20175171 .20098877-.21875 .28399659-.21875 .44699098-.21875 .54100039-.14575196 .54100039-.018447876V.53982546H.4079895M.28799439 .43182374C.35798646 .43182374 .4099884 .35876466 .4099884 .25868226 .4099884 .16061402 .35899354 .093551639 .28599549 .093551639 .21998596 .093551639 .17399597 .16061402 .17399597 .25868226 .17399597 .36076356 .21998596 .43182374 .28799439 .43182374Z"/>
<path id="font_1_9" d="M.5239868 .22558594C.5249939 .23757935 .5249939 .24258423 .5249939 .24957276 .5249939 .3035736 .5169983 .35365296 .5039978 .39172364 .46798707 .4898224 .3809967 .5488281 .27198792 .5488281 .116989139 .5488281 .021987915 .43681336 .021987915 .25558473 .021987915 .08255005 .115997318-.0234375 .2689972-.0234375 .3899994-.0234375 .48799134 .045547487 .5189972 .15156555H.3809967C.3639984 .108566287 .32499696 .08355713 .27398683 .08355713 .23399353 .08355713 .20199585 .10055542 .18199158 .13056946 .16899109 .15057373 .1639862 .1745758 .1619873 .22558594H.5239868M.1639862 .318573C.17298889 .40074159 .20799256 .44181825 .269989 .44181825 .30499269 .44181825 .33699037 .42478944 .35699464 .39672853 .36999513 .37669374 .37599183 .35565187 .3789978 .318573H.1639862Z"/>
<path id="font_1_15" d="M.06298828 .54003909V0H.20298767V.3240204C.20298767 .38783265 .24798584 .42982484 .31599427 .42982484 .37599183 .42982484 .4059906 .39683534 .4059906 .33285523V0H.54599V.36184693C.54599 .4808197 .47999574 .5488281 .36499024 .5488281 .2919922 .5488281 .24299622 .52182009 .20298767 .4618225V.54003909H.06298828Z"/>
<path id="font_1_19" d="M.30099488 .52853396H.22299195V.6735382H.08299255V.52853396H.01399231V.43554688H.08299255V.1035614C.08299255 .018554688 .12799073-.0234375 .21998596-.0234375 .25099183-.0234375 .27598573-.020446778 .30099488-.012451172V.08555603C.2869873 .08355713 .2789917 .08255005 .2689972 .08255005 .23199463 .08255005 .22299195 .093551639 .22299195 .14155579V.43554688H.30099488V.52853396Z"/>
<path id="font_2_4" d="M.37298585 .37835694C.35499574 .41537477 .32598878 .4423828 .2809906 .4423828 .1639862 .4423828 .039993287 .29533387 .039993287 .14929199 .039993287 .055267335 .09498596-.0107421879 .17298889-.0107421879 .19299317-.0107421879 .24299622-.0067443849 .30299378 .06427002 .31098939 .022247315 .34599305-.0107421879 .3939972-.0107421879 .42900086-.0107421879 .45199586 .012252808 .46798707 .044265748 .4850006 .08027649 .49798585 .14129639 .49798585 .14329529 .49798585 .1532898 .4889984 .1532898 .48599244 .1532898 .47599793 .1532898 .47499085 .14929199 .47200013 .13528443 .45498658 .07026672 .43699647 .011245728 .3959961 .011245728 .36898805 .011245728 .3659973 .037261964 .3659973 .057266237 .3659973 .07926941 .36799623 .08728027 .3789978 .13128662 .3899994 .17329407 .3919983 .18330384 .40098573 .22131348L.43699647 .36135865C.44400025 .38935853 .44400025 .39135743 .44400025 .39537049 .44400025 .41236878 .43199159 .42237855 .4149933 .42237855 .3909912 .42237855 .37599183 .4003601 .37298585 .37835694M.30799867 .119277957C.30299378 .10127258 .30299378 .09927368 .28799439 .08227539 .24398804 .027252198 .20298767 .011245728 .1749878 .011245728 .125 .011245728 .11099243 .06626892 .11099243 .105285648 .11099243 .1552887 .14299011 .27833558 .1659851 .32434083 .19699097 .38336183 .24198914 .42037965 .28199769 .42037965 .34700013 .42037965 .36099244 .3383484 .36099244 .33235169 .36099244 .32633973 .35899354 .32034303 .35798646 .31533814L.30799867 .119277957Z"/>
<path id="font_3_2" d="M.24598694 .39465333H.34799195C.36698915 .39465333 .37998963 .39465333 .37998963 .4166565 .37998963 .43066407 .36698915 .43066407 .34999085 .43066407H.25498963L.2919922 .57850649C.29299928 .58351138 .29499818 .588501 .29499818 .5924988 .29499818 .6104889 .2809906 .6244812 .26098634 .6244812 .23599243 .6244812 .22099304 .6074829 .21398926 .58151248 .20698548 .5565338 .21998596 .6044922 .17599488 .43066407H.07398987C.054992677 .43066407 .041992189 .43066407 .041992189 .4086609 .041992189 .39465333 .053985597 .39465333 .07199097 .39465333H.16699219L.10798645 .15901184C.101989749 .13404846 .09298706 .098098758 .09298706 .085128787 .09298706 .0262146 .14299011-.009765625 .19999695-.009765625 .31098939-.009765625 .37399293 .13005066 .37399293 .14303589 .37399293 .15602112 .36099244 .15602112 .35798646 .15602112 .34599305 .15602112 .34498597 .15402222 .33699037 .13703919 .30899049 .074142459 .2579956 .018234253 .20298767 .018234253 .18199158 .018234253 .16799927 .031204224 .16799927 .06715393 .16799927 .07713318 .17199707 .098098758 .17399597 .10809326L.24598694 .39465333Z"/>
<path id="font_4_2" d="M.7220001 .33418275C.7220001 .3561859 .71598818 .36618043 .70799258 .36618043 .7029877 .36618043 .69499209 .35917665 .69400027 .34017945 .6899872 .24397278 .6239929 .18881226 .55400088 .18881226 .4909973 .18881226 .44299317 .2319336 .3939972 .2750702 .34298707 .32118226 .29100038 .3671875 .22299195 .3671875 .11399841 .3671875 .054992677 .25701905 .054992677 .165802 .054992677 .13380432 .067993167 .13380432 .068984989 .13380432 .07998657 .13380432 .08299255 .1538086 .08299255 .15679932 .08699036 .26704408 .1619873 .3111725 .22299195 .3111725 .28599549 .3111725 .33399964 .26805116 .3829956 .22491455 .43399049 .17880249 .48599244 .1328125 .55400088 .1328125 .6629944 .1328125 .7220001 .2429657 .7220001 .33418275Z"/>
<path id="font_2_1" d="M.2649994 .37265016H.37799073C.34498597 .22489929 .33599855 .18196106 .33599855 .11508179 .33599855 .100097659 .33599855 .073150638 .34399415 .03919983 .35398866-.0047454836 .36499024-.0107421879 .37998963-.0107421879 .3999939-.0107421879 .42099 .007247925 .42099 .02722168 .42099 .033218385 .42099 .035202028 .4149933 .049179079 .38598634 .12106323 .38598634 .18595886 .38598634 .21391297 .38598634 .26683045 .3929901 .32073976 .4039917 .37265016H.5179901C.5309906 .37265016 .5669861 .37265016 .5669861 .406662 .5669861 .43066407 .54599 .43066407 .5269928 .43066407H.19198609C.16999817 .43066407 .13198853 .43066407 .08799744 .38365174 .052993776 .34469605 .026992798 .29878236 .026992798 .29379273 .026992798 .29278565 .026992798 .28379823 .038986207 .28379823 .04699707 .28379823 .04899597 .28779603 .054992677 .29577638 .10398865 .37265016 .1619873 .37265016 .18199158 .37265016H.23899842C.20698548 .25186158 .15299988 .13105774 .11099243 .04020691 .102996829 .025222779 .102996829 .023223877 .102996829 .016235352 .102996829-.002746582 .11898804-.0107421879 .13198853-.0107421879 .1619873-.0107421879 .16999817 .017242432 .18199158 .05418396 .19599915 .100097659 .19599915 .10209656 .20899964 .15202332L.2649994 .37265016Z"/>
<path id="font_5_1" d="M.33099366-.2400055C.33099366-.23701477 .33099366-.23500061 .31399537-.21800232 .18899536-.0920105 .15699768 .09700012 .15699768 .25 .15699768 .42399598 .19499207 .59799197 .31799317 .72299197 .33099366 .73498538 .33099366 .7369995 .33099366 .73999026 .33099366 .746994 .32699586 .75 .32099916 .75 .31098939 .75 .22099304 .6819916 .1619873 .5549927 .11099243 .44499208 .09899902 .33399964 .09899902 .25 .09899902 .17199707 .10998535 .050994874 .16499329-.06201172 .22499085-.18501282 .31098939-.25 .32099916-.25 .32699586-.25 .33099366-.24700928 .33099366-.2400055Z"/>
<path id="font_4_1" d="M.19198609 .2502594C.19198609 .2792511 .16799927 .30325318 .13899231 .30325318 .10998535 .30325318 .085998538 .2792511 .085998538 .2502594 .085998538 .22125244 .10998535 .19726563 .13899231 .19726563 .16799927 .19726563 .19198609 .22125244 .19198609 .2502594Z"/>
<path id="font_4_3" d="M.15899658 .71398928C.15899658 .7319946 .15899658 .75 .13899231 .75 .11898804 .75 .11898804 .7319946 .11898804 .71398928V-.21400452C.11898804-.23200989 .11898804-.25 .13899231-.25 .15899658-.25 .15899658-.23200989 .15899658-.21400452V.71398928Z"/>
<path id="font_5_3" d="M.41600038 .6529541 .3999939 .66796877C.3999939 .66696169 .3619995 .6199646 .31799317 .6199646 .29499818 .6199646 .269989 .634964 .25299073 .6449585 .22599793 .66096499 .20799256 .66796877 .19099427 .66796877 .15299988 .66796877 .13398743 .6459656 .08299255 .5899658L.09899902 .57496646C.09899902 .57595828 .13699341 .6229553 .18099976 .6229553 .20399475 .6229553 .22898865 .60795596 .24598694 .5979614 .272995 .58195498 .29100038 .57496646 .30799867 .57496646 .34599305 .57496646 .36499024 .59695437 .41600038 .6529541Z"/>
<path id="font_2_5" d="M.46899415 .2733307C.46899415 .3773651 .39898683 .4423828 .30899049 .4423828 .1749878 .4423828 .040985109 .30033876 .040985109 .15829468 .040985109 .059265138 .10798645-.0107421879 .20098877-.0107421879 .33399964-.0107421879 .46899415 .12728882 .46899415 .2733307M.20199585 .011245728C.15899658 .011245728 .114990238 .042266847 .114990238 .120285037 .114990238 .16929627 .14099121 .2773285 .17298889 .32833863 .22299195 .405365 .27999879 .42037965 .30799867 .42037965 .3659973 .42037965 .3959961 .37236024 .3959961 .3123474 .3959961 .2733307 .37599183 .16830445 .33799745 .103271488 .30299378 .04525757 .24798584 .011245728 .20199585 .011245728Z"/>
<path id="font_5_2" d="M.2889862 .25C.2889862 .32798768 .27799989 .44898988 .22299195 .56199648 .16299439 .68499758 .07699585 .75 .066986087 .75 .06098938 .75 .056991579 .74598696 .056991579 .73999026 .056991579 .7369995 .056991579 .73498538 .07598877 .71699526 .17399597 .6179962 .23098755 .45899964 .23098755 .25 .23098755 .07899475 .19400025-.09700012 .069992069-.2230072 .056991579-.23500061 .056991579-.23701477 .056991579-.2400055 .056991579-.2460022 .06098938-.25 .066986087-.25 .07699585-.25 .16699219-.18200684 .22599793-.055007936 .2769928 .054992677 .2889862 .16600037 .2889862 .25Z"/>
<path id="font_1_2" d="M.22898865 .31347657H.5779877V.43847657H.22898865V.60350039H.60598757V.7285156H.07899475V0H.6239929V.125H.22898865V.31347657Z"/>
<path id="font_1_20" d="M.34999085 0 .5359955 .54003909H.3880005L.2789917 .14500427 .1619873 .54003909H.01399231L.20298767 0H.34999085Z"/>
<path id="font_1_13" d="M.20698548 .53956606H.066986087V0H.20698548V.53956606M.20698548 .7285156H.066986087V.60350039H.20698548V.7285156Z"/>
<path id="font_1_17" d="M.06298828 .54003909V0H.20298767V.28701783C.20298767 .3688202 .24398804 .40982057 .32598878 .40982057 .34098817 .40982057 .35099793 .40881349 .36999513 .40582276V.54782107C.3619995 .5488281 .35699464 .5488281 .35299684 .5488281 .2889862 .5488281 .23298645 .5068207 .20298767 .43382264V.54003909H.06298828Z"/>
<path id="font_1_16" d="M.30099488 .5488281C.13598633 .5488281 .034988405 .43981935 .034988405 .26268006 .034988405 .08454895 .13598633-.0234375 .3019867-.0234375 .46598817-.0234375 .56900027 .08555603 .56900027 .25868226 .56900027 .44181825 .46998597 .5488281 .30099488 .5488281M.3019867 .43582154C.3789978 .43582154 .42900086 .36676026 .42900086 .26068116 .42900086 .15960694 .3769989 .08955383 .3019867 .08955383 .22599793 .08955383 .1749878 .15960694 .1749878 .26268006 .1749878 .36576844 .22599793 .43582154 .3019867 .43582154Z"/>
<path id="font_1_14" d="M.05999756 .54003909V0H.19999695V.3240204C.19999695 .38983155 .23599243 .42982484 .29599 .42982484 .34298707 .42982484 .37199403 .40283204 .37199403 .35984803V0H.5119934V.3238678C.5119934 .38983155 .5479889 .42982484 .60798647 .42982484 .6549988 .42982484 .6839905 .40283204 .6839905 .35984803V0H.82398989V.38183595C.82398989 .4868164 .7599945 .5488281 .6519928 .5488281 .58399966 .5488281 .5359955 .52482607 .49398805 .4688263 .46798707 .51982119 .4139862 .5488281 .34700013 .5488281 .2849884 .5490265 .24499512 .5280304 .19898987 .47303773V.54003909H.05999756Z"/>
<path id="font_1_1" d="M.07699585 0H.3619995C.47299195 0 .54299929 .025985718 .59199526 .084991458 .6499939 .15296936 .68099978 .25186158 .68099978 .3647461 .68099978 .4766388 .6499939 .575531 .59199526 .64450076 .54299929 .70350649 .47399903 .7285156 .3619995 .7285156H.07699585V0M.22698975 .125V.60350039H.3619995C.47499085 .60350039 .5309906 .5245819 .5309906 .36375428 .5309906 .20391846 .47499085 .125 .3619995 .125H.22698975Z"/>
<path id="font_1_22" d="M.3939972 .54003909 .28199769 .1468811 .16299439 .54003909H.008987427L.20999146-.02218628V-.0231781-.026184082C.20999146-.07720947 .17199707-.11621094 .12298584-.11621094 .11199951-.11621094 .10398865-.115219119 .085998538-.11021423V-.21522522C.10699463-.21821594 .11898804-.21922302 .13598633-.21922302 .17098999-.21922302 .21299744-.21221924 .23699951-.20222473 .27598573-.18621826 .29299928-.16322327 .31599427-.09921265L.5379944 .54003909H.3939972Z"/>
<path id="font_1_5" d="M.5239868 .016555787C.49899293 .03955078 .49198915 .05455017 .49198915 .08255005V.38278199C.49198915 .4928131 .4169922 .5488281 .2709961 .5488281 .125 .5488281 .04899597 .4868164 .039993287 .36175538H.1749878C.18199158 .4178009 .20498657 .43582154 .27398683 .43582154 .32798768 .43582154 .35499574 .4178009 .35499574 .3817749 .35499574 .36376954 .34599305 .3477478 .33099366 .3397522 .31199647 .32974244 .31199647 .32974244 .24299622 .3187256L.18699646 .30871583C.07998657 .29071046 .027999878 .235672 .027999878 .13859558 .027999878 .092559818 .040985109 .05455017 .06599426 .027557373 .09700012-.0044403078 .14399719-.0234375 .19198609-.0234375 .2519989-.0234375 .30699159 .0025482178 .35598756 .05355835 .35598756 .025558472 .35899354 .015548706 .37199403-.00044250489H.5239868V.016555787M.35499574 .21664429C.35499574 .1355896 .31498719 .08955383 .24398804 .08955383 .19699097 .08955383 .16799927 .11457825 .16799927 .15460205 .16799927 .19664002 .18998719 .21664429 .24798584 .22866822L.29599 .2376709C.33299256 .24467469 .33898927 .24667359 .35499574 .25468446V.21664429Z"/>
<path id="font_1_7" d="M.5219879 .33773805C.5119934 .46981813 .42399598 .5488281 .2889862 .5488281 .12799073 .5488281 .033996583 .44282533 .033996583 .25868226 .033996583 .08055115 .1269989-.0234375 .2869873-.0234375 .41799928-.0234375 .5089874 .057556154 .5219879 .18663025H.3880005C.36999513 .11657715 .34199525 .08955383 .28799439 .08955383 .21699524 .08955383 .17399597 .15361023 .17399597 .25868226 .17399597 .3097229 .18399048 .35775758 .20098877 .38978578 .21699524 .4197998 .24798584 .43582154 .28799439 .43582154 .34498597 .43582154 .37199403 .40879823 .3880005 .33773805H.5219879Z"/>
<path id="font_1_18" d="M.5049896 .36576844C.5029907 .47982789 .4149933 .5488281 .269989 .5488281 .1329956 .5488281 .04798889 .47982789 .04798889 .36875917 .04798889 .33273316 .05899048 .30171205 .07798767 .28070069 .09700012 .26168824 .11399841 .25268556 .1659851 .235672L.33299256 .18362427C.36799623 .17262268 .37998963 .16160584 .37998963 .1395874 .37998963 .10656738 .34098817 .08654785 .27598573 .08654785 .23999024 .08654785 .21099854 .093566898 .19299317 .10557556 .17799378 .11657715 .17199707 .12757874 .1659851 .15660095H.0289917C.032989503 .03855896 .11999512-.0234375 .28399659-.0234375 .35899354-.0234375 .41600038-.007446289 .45599366 .024551392 .49598695 .056549074 .519989 .10656738 .519989 .15960694 .519989 .22966004 .4850006 .27468873 .4139862 .29571534L.23699951 .34675599C.19799805 .35876466 .18798828 .36676026 .18798828 .3887787 .18798828 .41880799 .21998596 .4388275 .2689972 .4388275 .33599855 .4388275 .36898805 .41479493 .36999513 .36576844H.5049896Z"/>
<path id="font_1_12" d="M.066986087 .7285156V0H.20698548V.3238678C.20698548 .38583375 .2519989 .42982484 .31498719 .42982484 .34498597 .42982484 .36898805 .41882325 .3849945 .39683534 .39698792 .3788452 .40098573 .3648529 .40098573 .3298645V0H.54100039V.36184693C.54100039 .42881776 .522995 .4768219 .48599244 .50782778 .45498658 .5338135 .4099884 .5488281 .36499024 .5488281 .29599 .5488281 .24598694 .520813 .20698548 .4618225V.7285156H.066986087Z"/>
<path id="font_1_10" d="M.31298829 .52853396H.22999573V.5815277C.22999573 .6095123 .24198914 .62350466 .2679901 .62350466 .27999879 .62350466 .29599 .6225128 .30799867 .6205139V.72550967C.28199769 .72750857 .24699402 .7285156 .22799683 .7285156 .1349945 .7285156 .08999634 .6845093 .08999634 .5935211V.52853396H.01399231V.43554688H.08999634V0H.22999573V.43554688H.31298829V.52853396Z"/>
<path id="font_1_3" d="M.3899994 .74121096C.28799439 .74121096 .20399475 .7071991 .14199829 .64019778 .07699585 .57014468 .039993287 .46801759 .039993287 .35887147 .039993287 .2497406 .07699585 .14660645 .14199829 .077560428 .20498657 .009552002 .2869873-.0234375 .3909912-.0234375 .49499513-.0234375 .57699587 .009552002 .6399994 .077560428 .7029877 .14460755 .74198916 .25074769 .74198916 .35386659 .74198916 .46801759 .7049866 .57014468 .6399994 .64019778 .57598879 .709198 .49499513 .74121096 .3899994 .74121096M.3909912 .61320498C.5139923 .61320498 .59199526 .5130768 .59199526 .35487367 .59199526 .20568848 .5109863 .10455322 .3909912 .10455322 .269989 .10455322 .18998719 .20568848 .18998719 .35887147 .18998719 .5120697 .269989 .61320498 .3909912 .61320498Z"/>
<path id="font_1_6" d="M.05899048 .7285156V-.00044250489H.19898987V.05455017C.23298645 .0015563965 .27999879-.0234375 .34799195-.0234375 .47698976-.0234375 .57499697 .0995636 .57499697 .2626953 .57499697 .33573915 .5529938 .4098053 .5169983 .4618225 .47999574 .5148163 .4139862 .5488281 .34799195 .5488281 .2809906 .5488281 .23298645 .52381899 .19898987 .46981813V.7285156H.05899048M.31698609 .43182374C.38598634 .43182374 .43499757 .36177064 .43499757 .26168824 .43499757 .16360474 .38598634 .093551639 .31698609 .093551639 .24598694 .093551639 .19898987 .16160584 .19898987 .2646942 .19898987 .36276246 .24699402 .43182374 .31698609 .43182374Z"/>
<path id="font_2_3" d="M.1789856 .114868167C.13899231 .047973634 .099990848 .033981325 .055999757 .0309906 .04399109 .02999878 .034988405 .02999878 .034988405 .010986328 .034988405 .004989624 .039993287 0 .04798889 0 .07499695 0 .10598755 .0029907227 .13398743 .0029907227 .16699219 .0029907227 .20199585 0 .23399353 0 .23999024 0 .25299073 0 .25299073 .018997193 .25299073 .02999878 .24398804 .0309906 .23699951 .0309906 .21398926 .032989503 .18998719 .04096985 .18998719 .06593323 .18998719 .077926639 .19599915 .088897708 .20399475 .102890018L.27999879 .23068238H.5309906C.5329895 .2097168 .5469971 .07392883 .5469971 .063949588 .5469971 .033981325 .49499513 .0309906 .47499085 .0309906 .46099855 .0309906 .45098878 .0309906 .45098878 .010986328 .45098878 0 .46299745 0 .46499635 0 .5059967 0 .548996 .0029907227 .58999636 .0029907227 .61499026 .0029907227 .6779938 0 .7029877 0 .70899966 0 .72099307 0 .72099307 .019989014 .72099307 .0309906 .71099856 .0309906 .69799807 .0309906 .6359863 .0309906 .6359863 .037979127 .6329956 .06694031L.57199099 .691803C.56999209 .71180728 .56999209 .7158203 .5529938 .7158203 .5369873 .7158203 .5329895 .7088165 .5269928 .69880679L.1789856 .114868167M.29899598 .26168824 .49598695 .5917816 .5279999 .26168824H.29899598Z"/>
<path id="font_3_1" d="M.5109863 .48709107C.5109863 .59210208 .47099305 .70410159 .37298585 .70410159 .22299195 .70410159 .06298828 .4360962 .06298828 .20713806 .06298828 .0881958 .10899353-.009765625 .20098877-.009765625 .35299684-.009765625 .5109863 .26312257 .5109863 .48709107M.17599488 .36509706C.22698975 .58110049 .31298829 .6760864 .37199403 .6760864 .43598939 .6760864 .43598939 .565094 .43598939 .5460968 .43598939 .50709536 .42799378 .44909669 .40699769 .36509706H.17599488M.397995 .32910157C.36999513 .22013855 .34700013 .16616822 .31698609 .1171875 .28599549 .065200809 .24598694 .018234253 .20199585 .018234253 .14698792 .018234253 .13798523 .094192508 .13798523 .1481781 .13798523 .21414185 .15699768 .29211427 .16699219 .32910157H.397995Z"/>
<path id="font_6_1" d="M.5779877 .32435609C.58299258 .34535218 .59298709 .38237 .59298709 .38737489 .59298709 .40437318 .5799866 .42237855 .55599978 .42237855 .5379944 .42237855 .5139923 .41036988 .5059967 .38237 .4869995 .40837098 .44898988 .4423828 .38598634 .4423828 .24499512 .4423828 .10499573 .30534364 .10499573 .16329956 .10499573 .061264039 .17999268-.0107421879 .27999879-.0107421879 .3619995-.0107421879 .42599488 .04725647 .43798829 .059265138 .45599366 .010253906 .5109863-.0107421879 .55599978-.0107421879 .59599307-.0107421879 .6230011 .012252808 .6439972 .04525757 .66999819 .08427429 .6839905 .13728333 .6839905 .14428711 .6839905 .15829468 .6669922 .15829468 .6629944 .15829468 .644989 .15829468 .6439972 .15229798 .6389923 .1362915 .62098696 .06225586 .59498599 .023254395 .55999758 .023254395 .5319977 .023254395 .519989 .04525757 .519989 .07626343 .519989 .091278079 .5299988 .12928772 .5359955 .15629578L.5779877 .32435609M.44400025 .13328552C.43998719 .11828613 .43998719 .11628723 .42199708 .0962677 .3849945 .054260255 .33299256 .023254395 .2829895 .023254395 .24798584 .023254395 .19499207 .042251588 .19499207 .12528992 .19499207 .17129517 .21899414 .27633668 .2539978 .32835389 .29299928 .38336183 .34399415 .40837098 .38598634 .40837098 .43099977 .40837098 .47399903 .38136292 .48999024 .3213501L.44400025 .13328552Z"/>
<path id="font_2_6" d="M.3909912 .37405396C.36299134 .37304688 .34298707 .3510437 .34298707 .32904054 .34298707 .31503297 .35198976 .30003358 .37399293 .30003358 .3959961 .30003358 .41999818 .31703187 .41999818 .35603334 .41999818 .40124513 .3769989 .4423828 .30099488 .4423828 .16899109 .4423828 .13198853 .3400421 .13198853 .29605104 .13198853 .21820069 .20599365 .20323181 .23498535 .19725037 .2869873 .18727112 .33898927 .17628479 .33898927 .12133789 .33898927 .095336917 .31599427 .011245728 .19599915 .011245728 .18199158 .011245728 .10499573 .011245728 .08198547 .064331058 .11999512 .059326173 .14498902 .08934021 .14498902 .11734009 .14498902 .14033509 .1289978 .15234375 .10798645 .15234375 .08198547 .15234375 .051986696 .1313324 .051986696 .08633423 .051986696 .029281617 .10899353-.0107421879 .19499207-.0107421879 .35699464-.0107421879 .3959961 .1103363 .3959961 .15533448 .3959961 .19125366 .3769989 .21620178 .36499024 .22817993 .33799745 .25613404 .30899049 .26112367 .2649994 .27009584 .22898865 .27807618 .18899536 .2850647 .18899536 .33003236 .18899536 .3590393 .21299744 .42037965 .30099488 .42037965 .32598878 .42037965 .37599183 .41333009 .3909912 .37405396Z"/>
<path id="font_2_2" d="M.20298767 .0009918213C.20298767 .066986087 .17799378 .10598755 .13899231 .10598755 .10598755 .10598755 .085998538 .08099365 .085998538 .052993776 .085998538 .025985718 .10598755 0 .13899231 0 .15098572 0 .1639862 .0039978029 .17399597 .0129852299 .1769867 .01499939 .17799378 .015991211 .1789856 .015991211 .17999268 .015991211 .18099976 .01499939 .18099976 .0009918213 .18099976-.07316589 .1459961-.13328552 .11299133-.16635132 .101989749-.17736817 .101989749-.17936707 .101989749-.18237305 .101989749-.18936157 .10699463-.19335938 .11199951-.19335938 .12298584-.19335938 .20298767-.116256717 .20298767 .0009918213Z"/>
<path id="font_1_4" d="M.22999573 .28904725H.4019928C.46699525 .28904725 .49499513 .26304627 .49499513 .20202637 .49499513 .19602967 .49499513 .18603516 .49398805 .17301941 .49299623 .15402222 .49299623 .13601685 .49299623 .12501526 .49299623 .057006837 .49699403 .034988405 .5159912 0H.6769867V.026992798C.6539917 .039993287 .644989 .055007936 .644989 .087005618 .6409912 .30204774 .6369934 .3120575 .5439911 .35205079 .6259918 .38404847 .6669922 .4429779 .6669922 .531723 .6669922 .58955386 .6469879 .64250186 .6119995 .6785126 .57899478 .71250918 .5329895 .7285156 .47099305 .7285156H.07998657V0H.22999573V.28904725M.22999573 .4140625V.60350039H.41099549C.45399476 .60350039 .47200013 .5995178 .48999024 .5845642 .5079956 .5696106 .5169983 .54467776 .5169983 .5107727 .5169983 .47587586 .5069885 .44795228 .48999024 .43299867 .47399903 .41903688 .45399476 .4140625 .41099549 .4140625H.22999573Z"/>
<path id="font_1_21" d="M.61299136 0 .7659912 .54003909H.62098696L.5389862 .16200257 .45799256 .54003909H.31799317L.23599243 .16200257 .1499939 .54003909H.004989624L.15699768 0H.30099488L.3869934 .38102723 .46798707 0H.61299136Z"/>
<path id="font_1_8" d="M.40499879-.00044250489H.54499819V.7285156H.40499879V.46981813C.36999513 .52381899 .32299806 .5488281 .2559967 .5488281 .1269989 .5488281 .0289917 .42481996 .0289917 .26168824 .0289917 .18862915 .050994874 .11457825 .08699036 .062561038 .12399292 .010559082 .18998719-.0234375 .2559967-.0234375 .32299806-.0234375 .36999513 .0015563965 .40499879 .05455017V-.00044250489M.2869873 .43182374C.35798646 .43182374 .40499879 .36276246 .40499879 .25968934 .40499879 .16160584 .35699464 .093551639 .2869873 .093551639 .21699524 .093551639 .16899109 .16261292 .16899109 .26168824 .16899109 .36177064 .21699524 .43182374 .2869873 .43182374Z"/>
<path id="font_1_23" d="M.20799256 .71432498 .0019989014-.013671875H.068984989L.2749939 .71432498H.20799256Z"/>
<path id="font_7_7" d="M.39698792 .37402345C.35398866 .37001039 .34999085 .3360138 .34999085 .32901 .34999085 .31201173 .36299134 .29901124 .38198854 .29901124 .4099884 .29901124 .42900086 .32202149 .42900086 .355011 .42900086 .40527345 .37998963 .4423828 .30599977 .4423828 .17199707 .4423828 .13398743 .3420105 .13398743 .2960205 .13398743 .25810243 .15299988 .23814392 .1659851 .22616577 .18598938 .2071991 .21299744 .20121765 .24899292 .19422913 .2939911 .1852417 .3039856 .18325806 .32199098 .17027283 .33799745 .15830994 .34700013 .14231873 .34700013 .12130737 .34700013 .0953064 .32299806 .014251709 .20199585 .014251709 .1789856 .014251709 .10899353 .01725769 .08699036 .063308719 .13699341 .063308719 .14698792 .10331726 .14698792 .11730957 .14698792 .14730835 .11999512 .15332031 .10899353 .15332031 .09098816 .15332031 .052993776 .13931275 .052993776 .08731079 .052993776 .025268555 .115997318-.0107421879 .20098877-.0107421879 .36898805-.0107421879 .4059906 .11231995 .4059906 .15530396 .4059906 .1932373 .3849945 .21717835 .37298585 .2291565 .34700013 .25610353 .31498719 .26208497 .27999879 .2690735 .2679901 .2720642 .24598694 .276062 .24299622 .27705384 .20999146 .28404237 .19198609 .3040161 .19198609 .32901 .19198609 .3400116 .19898987 .37200929 .22698975 .3941803 .25498963 .41636659 .29299928 .41737367 .30599977 .41737367 .34098817 .41737367 .38198854 .40628053 .39698792 .37402345Z"/>
<path id="font_8_1" d="M.2689972 .39065553H.37799073C.397995 .39065553 .4119873 .39065553 .4119873 .4156494 .4119873 .43066407 .39898683 .43066407 .3809967 .43066407H.2789917L.31399537 .5685272C.31799317 .58351138 .31799317 .5894928 .31799317 .5904999 .31799317 .6144867 .29899598 .6244812 .2829895 .6244812 .2709961 .6244812 .24499512 .6174774 .23599243 .58551028L.19699097 .43066407H.08898926C.067993167 .43066407 .066986087 .42965699 .06298828 .426651 .057998659 .4226532 .053985597 .4096527 .053985597 .4046631 .056991579 .39065553 .06599426 .39065553 .085998538 .39065553H.18699646L.12799073 .15501404C.12199402 .13204956 .11399841 .09811401 .11399841 .086120609 .11399841 .028213501 .1659851-.009765625 .22698975-.009765625 .34199525-.009765625 .4099884 .12705994 .4099884 .14404297 .4099884 .14703369 .4079895 .15802002 .3909912 .15802002 .37799073 .15802002 .37599183 .1530304 .37098695 .14103699 .33699037 .06616211 .27999879 .023223877 .23098755 .023223877 .19400025 .023223877 .19299317 .060165407 .19299317 .073150638 .19299317 .087127689 .19299317 .08912659 .19799805 .10809326L.2689972 .39065553Z"/>
<path id="font_9_4" d="M.40899659 .6689453C.38198854 .64193728 .35899354 .62294009 .32798768 .62294009 .30599977 .62294009 .2869873 .63194277 .2559967 .64894106 .24299622 .6559448 .21998596 .6689453 .19599915 .6689453 .15899658 .6689453 .13999939 .64894106 .085998538 .58973696L.10398865 .57273867C.1309967 .5997925 .1539917 .61894229 .18499756 .61894229 .20698548 .61894229 .22599793 .6098633 .25698854 .5927429 .269989 .58573916 .29299928 .57273867 .31698609 .57273867 .35398866 .57273867 .37298585 .5927429 .4269867 .65193179L.40899659 .6689453Z"/>
<path id="font_7_5" d="M.48199464 .2713318C.48199464 .3713684 .4139862 .4423828 .31599427 .4423828 .17999268 .4423828 .042999269 .30433656 .042999269 .16029358 .042999269 .055267335 .115997318-.0107421879 .20899964-.0107421879 .34498597-.0107421879 .48199464 .12728882 .48199464 .2713318M.20999146 .014251709C.16999817 .014251709 .11999512 .039260866 .11999512 .123291019 .11999512 .16630554 .13899231 .26533509 .1789856 .3293457 .20698548 .37435914 .26098634 .41737367 .31498719 .41737367 .3600006 .41737367 .40499879 .3863678 .40499879 .3083496 .40499879 .2703247 .3880005 .17430115 .34899903 .10928345 .31698609 .054260255 .26098634 .014251709 .20999146 .014251709Z"/>
<path id="font_7_3" d="M.38198854 .3803711C.36299134 .41638185 .33198548 .4423828 .2869873 .4423828 .17098999 .4423828 .041992189 .30433656 .041992189 .1512909 .041992189 .041259767 .11199951-.0107421879 .1789856-.0107421879 .24398804-.0107421879 .29699708 .043258668 .31298829 .06227112 .32398988 .007247925 .37399293-.0107421879 .4059906-.0107421879 .43499757-.0107421879 .45999146 .002243042 .48199464 .044265748 .5 .07727051 .5139923 .13928223 .5139923 .14329529 .5139923 .14828491 .5109863 .1552887 .5009918 .1552887 .4889984 .1552887 .48799134 .15029907 .48399354 .13128662 .46199037 .044265748 .43998719 .014251709 .40899659 .014251709 .38398744 .014251709 .37799073 .038253786 .37799073 .060272218 .37799073 .07926941 .3829956 .09927368 .3919983 .1342926L.4169922 .23731995C.42399598 .2623291 .44198609 .33735658 .44599916 .35235597 .44999696 .36636354 .45599366 .3903656 .45599366 .39337159 .45599366 .40937806 .44299317 .42237855 .4249878 .42237855 .4119873 .42237855 .3869934 .41438294 .38198854 .3803711M.31698609 .122283939C.31199647 .103271488 .31199647 .10227966 .29599 .08326721 .2599945 .040252687 .21899414 .014251709 .18199158 .014251709 .1329956 .014251709 .115997318 .06526184 .115997318 .10827637 .115997318 .15730286 .14498902 .27233888 .16899109 .32034303 .20098877 .3803711 .24699402 .41737367 .2869873 .41737367 .35398866 .41737367 .36898805 .33735658 .36898805 .33035279 .36898805 .3253479 .36698915 .3193512 .3659973 .31533814L.31698609 .122283939Z"/>
<path id="font_7_6" d="M.4039917 .40527345C.37098695 .39926148 .35398866 .3712616 .35398866 .3502655 .35398866 .3312683 .36799623 .31427003 .3929901 .31427003 .41999818 .31427003 .44799806 .337265 .44799806 .37426759 .44799806 .41334535 .4119873 .4423828 .36299134 .4423828 .28799439 .4423828 .24598694 .386261 .23199463 .3672638 .21998596 .42237855 .1749878 .4423828 .13699341 .4423828 .100997928 .4423828 .07798767 .42037965 .06098938 .38526917 .041992189 .34925843 .0289917 .29226686 .0289917 .28826905 .0289917 .27926637 .035995485 .27626039 .042999269 .27626039 .053985597 .27626039 .055999757 .28126527 .06098938 .30126954 .07998657 .38026429 .100997928 .41737367 .1349945 .41737367 .16499329 .41737367 .16499329 .38526917 .16499329 .37026979 .16499329 .34925843 .15699768 .31826783 .15098572 .29226686 .14399719 .26626588 .13398743 .2232666 .12998963 .21125794L.08999634 .04725647C.08299255 .023254395 .08299255 .021255494 .08299255 .018249512 .08299255 .0052490236 .09199524-.0107421879 .11399841-.0107421879 .1459961-.0107421879 .15299988 .01625061 .1599884 .04525757 .17199707 .088256839 .17199707 .09025574 .18199158 .1312561 .21899414 .28126527 .22499085 .30526734 .22698975 .31025697 .23298645 .32226563 .2789917 .41737367 .3619995 .41737367 .3849945 .41737367 .39898683 .40930177 .4039917 .40527345Z"/>
<path id="font_7_2" d="M.18199158 .015991211C.18199158-.017044068 .18199158-.09921265 .10798645-.17036438 .101989749-.17636109 .101989749-.17736817 .101989749-.18136597 .101989749-.18836975 .10899353-.19335938 .114990238-.19335938 .12599182-.19335938 .20698548-.115249637 .20698548 .0019989014 .20698548 .06399536 .18499756 .10798645 .14199829 .10798645 .10798645 .10798645 .08799744 .08198547 .08799744 .053985597 .08799744 .025985718 .10798645 0 .14199829 0 .15699768 0 .17199707 .004989624 .18199158 .015991211Z"/>
<path id="font_7_4" d="M.4019928 .38200379C.3639984 .38101197 .34399415 .352005 .34399415 .3270111 .34399415 .29800416 .36999513 .29101563 .38198854 .29101563 .4019928 .29101563 .43798829 .30801393 .43798829 .355011 .43798829 .40827943 .3849945 .4423828 .31599427 .4423828 .17999268 .4423828 .042999269 .30400086 .042999269 .16012573 .042999269 .06021118 .10998535-.0107421879 .21099854-.0107421879 .36099244-.0107421879 .44499208 .093185428 .44499208 .106170658 .44499208 .11216736 .43798829 .120162967 .43099977 .120162967 .42599488 .120162967 .4249878 .119155887 .41600038 .108169559 .35598756 .034225465 .2649994 .014251709 .21299744 .014251709 .15699768 .014251709 .11999512 .051223756 .11999512 .12315369 .11999512 .16612244 .13899231 .2650299 .1789856 .32901 .20199585 .3650055 .2539978 .41737367 .31698609 .41737367 .33599855 .41737367 .37799073 .41333009 .4019928 .38200379Z"/>
<path id="font_10_8" d="M.1519928 .7285156H.067993167V0H.1519928V.7285156Z"/>
<path id="font_10_3" d="M.5130005 .23374939C.5130005 .31376649 .5069885 .36186219 .49198915 .40093995 .45799256 .48706056 .37799073 .5390625 .27999879 .5390625 .13398743 .5390625 .039993287 .4269867 .039993287 .25474549 .039993287 .08258057 .1309967-.0234375 .27799989-.0234375 .397995-.0234375 .48098756 .044555665 .5019989 .15867615H.41799928C.394989 .08959961 .34799195 .05355835 .2809906 .05355835 .22799683 .05355835 .18299866 .07757568 .15499878 .12162781 .1349945 .1516571 .12799073 .18170166 .1269989 .23374939H.5130005M.1289978 .3017578C.13598633 .39894105 .19499207 .4620514 .2789917 .4620514 .36099244 .4620514 .42399598 .3939209 .42399598 .30775453 .42399598 .30575563 .42399598 .3037567 .4229889 .3017578H.1289978Z"/>
<path id="font_10_1" d="M.5349884 .048553468C.526001 .046554567 .5219879 .046554567 .5169983 .046554567 .48799134 .046554567 .47200013 .061569215 .47200013 .08760071V.39598084C.47200013 .48905946 .4039917 .5390625 .2749939 .5390625 .19898987 .5390625 .13598633 .5170593 .100997928 .47805787 .07699585 .45103456 .066986087 .42100526 .06498718 .36894227H.14898682C.1559906 .43301393 .19400025 .4620514 .27198792 .4620514 .34700013 .4620514 .3889923 .434021 .3889923 .3839569V.36193849C.3889923 .32688905 .36799623 .3118744 .3019867 .30386354 .18399048 .28884889 .1659851 .28483583 .13398743 .27182008 .07299805 .24679566 .041992189 .19973755 .041992189 .13165283 .041992189 .03656006 .10798645-.0234375 .21398926-.0234375 .27999879-.0234375 .33299256-.00044250489 .3919983 .05355835 .397995 .0005493164 .42399598-.0234375 .47799684-.0234375 .49499513-.0234375 .5079956-.021438599 .5349884-.014450073V.048553468M.3889923 .16468811C.3889923 .13665772 .3809967 .119644168 .35598756 .09661865 .32199098 .06556702 .2809906 .049560548 .23199463 .049560548 .16699219 .049560548 .1289978 .080596927 .1289978 .13365174 .1289978 .1887207 .1659851 .2167511 .25498963 .22976685 .34298707 .24179077 .36099244 .24578858 .3889923 .25880433V.16468811Z"/>
<path id="font_10_13" d="M.068984989 .52441409V0H.15299988V.27220155C.15299988 .34727479 .17199707 .39631654 .21199036 .42533876 .23799134 .4443512 .2630005 .45036317 .32099916 .45135499V.5364075C.30699159 .5380554 .2999878 .5390625 .2889862 .5390625 .23498535 .5390625 .19400025 .50704959 .1459961 .42904664V.52441409H.068984989Z"/>
<path id="font_10_10" d="M.069992069 .52441409V0H.1539917V.2892151C.1539917 .39604188 .20999146 .4660492 .29599 .4660492 .3619995 .4660492 .4039917 .42604066 .4039917 .3630371V0H.4869995V.39604188C.4869995 .4830475 .42199708 .5390625 .32099916 .5390625 .24299622 .5390625 .19299317 .50904849 .14698792 .43605042V.52441409H.069992069Z"/>
<path id="font_10_7" d="M.1499939 .5235901H.066986087V0H.1499939V.5235901M.1499939 .7285156H.06599426V.62350466H.1499939V.7285156Z"/>
<path id="font_10_5" d="M.4119873 .52404788V.44804383C.36999513 .51005557 .31900025 .5390625 .2519989 .5390625 .11898804 .5390625 .0289917 .42300416 .0289917 .25279237 .0289917 .16668701 .051986696 .09660339 .09498596 .046554567 .13398743 .0025482178 .18998719-.0234375 .24499512-.0234375 .31098939-.0234375 .35699464 .004562378 .4039917 .0705719V.043548585C.4039917-.027450562 .394989-.07044983 .37399293-.09944153 .35198976-.13044739 .30899049-.1484375 .2579956-.1484375 .21998596-.1484375 .18598938-.138443 .16299439-.12043762 .14399719-.10543823 .13598633-.09144592 .1309967-.060440065H.04598999C.054992677-.15943909 .13198853-.21844483 .25498963-.21844483 .33299256-.21844483 .3999939-.19345093 .43399049-.15144348 .47399903-.10343933 .4889984-.03744507 .4889984 .08560181V.52404788H.4119873M.26098634 .4620514C.35099793 .4620514 .4039917 .3859558 .4039917 .25480653 .4039917 .12965393 .34999085 .05355835 .2619934 .05355835 .17098999 .05355835 .115997318 .13064575 .115997318 .25779725 .115997318 .3839569 .17199707 .4620514 .26098634 .4620514Z"/>
<path id="font_10_14" d="M.43798829 .37794496C.43699647 .48104859 .36898805 .5390625 .24798584 .5390625 .12599182 .5390625 .04699707 .47605897 .04699707 .37895204 .04699707 .29685975 .08898926 .25779725 .21299744 .22776795L.29100038 .20874024C.34899903 .19473267 .37199403 .17370606 .37199403 .13565064 .37199403 .08659363 .32299806 .05355835 .25 .05355835 .20498657 .05355835 .16699219 .0665741 .1459961 .08859253 .1329956 .10362244 .1269989 .118637088 .12199402 .15568543H.033996583C.037994386 .034561159 .10598755-.0234375 .24299622-.0234375 .375-.0234375 .45899964 .041549684 .45899964 .14266968 .45899964 .22076416 .4149933 .2638092 .31098939 .28884889L.23098755 .30786134C.16299439 .32388307 .13398743 .34591676 .13398743 .3829651 .13398743 .431015 .1769867 .4620514 .24499512 .4620514 .31199647 .4620514 .34799195 .43301393 .34999085 .37794496H.43798829Z"/>
<path id="font_7_8" d="M.49198915 .40434266C.45498658 .39733888 .44400025 .3653412 .44400025 .3503418 .44400025 .33132936 .45799256 .31433106 .48298646 .31433106 .5109863 .31433106 .5379944 .33833314 .5379944 .3733368 .5379944 .41937257 .48799134 .4423828 .44099427 .4423828 .3809967 .4423828 .34599305 .38934327 .33399964 .3683319 .31498719 .41737367 .2709961 .4423828 .22299195 .4423828 .115997318 .4423828 .057998659 .31433106 .057998659 .28833009 .057998659 .2793274 .06498718 .2763214 .07199097 .2763214 .08099365 .2763214 .083999637 .2813263 .085998538 .287323 .116989139 .38633729 .18299866 .41737367 .22099304 .41737367 .25 .41737367 .27598573 .3983307 .27598573 .35133363 .27598573 .31533814 .23298645 .15530396 .21998596 .107284549 .21199036 .076293949 .18199158 .014251709 .1269989 .014251709 .10699463 .014251709 .085998538 .021270752 .07598877 .027282715 .102996829 .032287599 .12298584 .055282594 .12298584 .08128357 .12298584 .106292728 .10398865 .11729431 .084991458 .11729431 .055999757 .11729431 .02999878 .092285159 .02999878 .058288576 .02999878 .009246826 .083999637-.0107421879 .12599182-.0107421879 .18399048-.0107421879 .21798706 .03729248 .23298645 .06428528 .2579956-.0017547608 .31698609-.0107421879 .34399415-.0107421879 .45199586-.0107421879 .5089874 .11929321 .5089874 .14329529 .5089874 .14830017 .5059967 .15530396 .49598695 .15530396 .4850006 .15530396 .48399354 .1512909 .47898866 .1362915 .45700074 .06428528 .39898683 .014251709 .34700013 .014251709 .31799317 .014251709 .29100038 .032287599 .29100038 .08029175 .29100038 .10229492 .30499269 .15730286 .31399537 .1953125 .31799317 .21331787 .34498597 .32133485 .34700013 .32833863 .35899354 .3643341 .3889923 .41737367 .43998719 .41737367 .45799256 .41737367 .47698976 .41436769 .49198915 .40434266Z"/>
<path id="font_9_3" d="M.70799258 .3310089C.7220001 .3310089 .7409973 .3310089 .7409973 .35202027 .7409973 .37402345 .71899417 .37402345 .70399478 .37402345H.09399414C.07899475 .37402345 .056991579 .37402345 .056991579 .35202027 .056991579 .3310089 .07699585 .3310089 .08999634 .3310089H.70799258M.70399478 .12695313C.71899417 .12695313 .7409973 .12695313 .7409973 .14894104 .7409973 .1699524 .7220001 .1699524 .70799258 .1699524H.08999634C.07699585 .1699524 .056991579 .1699524 .056991579 .14894104 .056991579 .12695313 .07899475 .12695313 .09399414 .12695313H.70399478Z"/>
<path id="font_9_1" d="M.34098817-.23803711C.34098817-.23303223 .33799745-.23002625 .33198548-.22303772 .20298767-.105026248 .1639862 .07498169 .1639862 .24996948 .1639862 .40498353 .19400025 .59298709 .33499146 .72698977 .33898927 .73098757 .34098817 .73399356 .34098817 .7389984 .34098817 .74598696 .33599855 .75 .32899476 .75 .31698609 .75 .22698975 .6779785 .17298889 .568985 .125 .47297669 .100997928 .36997987 .100997928 .25097657 .100997928 .17897034 .10998535 .064971927 .16499329-.053024293 .22399903-.17602539 .31698609-.24902344 .32899476-.24902344 .33599855-.24902344 .34098817-.24502564 .34098817-.23803711Z"/>
<path id="font_9_2" d="M.2979889 .25097657C.2979889 .3329773 .28599549 .4429779 .23399353 .5539856 .1749878 .6769867 .08198547 .75 .069992069 .75 .05999756 .75 .057998659 .74198916 .057998659 .7389984 .057998659 .73399356 .05999756 .73098757 .066986087 .72398379 .125 .6719818 .23498535 .5359802 .23498535 .25097657 .23498535 .10797119 .20899964-.091033939 .06399536-.22602844 .06199646-.22903443 .057998659-.23303223 .057998659-.23803711 .057998659-.24102783 .05999756-.24902344 .069992069-.24902344 .08198547-.24902344 .17199707-.17703247 .22599793-.06802368 .27398683 .02796936 .2979889 .13098145 .2979889 .25097657Z"/>
<path id="font_7_9" d="M.5019989 .38536073C.5029907 .3903656 .5049896 .39637757 .5049896 .40237428 .5049896 .41537477 .49598695 .43138124 .47399903 .43138124 .46099855 .43138124 .44299317 .42337037 .43499757 .40437318 .43399049 .40037538 .42399598 .35935975 .41799928 .33735658L.36799623 .13728333C.3600006 .10827637 .3600006 .106277469 .35798646 .09727478 .35699464 .09327698 .31498719 .014251709 .24299622 .014251709 .18099976 .014251709 .18099976 .07727051 .18099976 .09628296 .18099976 .14129639 .19400025 .19030762 .23699951 .30233766 .24499512 .3253479 .25099183 .33935548 .25099183 .35835267 .25099183 .40737916 .21398926 .4423828 .16499329 .4423828 .068984989 .4423828 .0289917 .30033876 .0289917 .28833009 .0289917 .2793274 .035995485 .27633668 .042999269 .27633668 .053985597 .27633668 .054992677 .28233338 .05899048 .29533387 .07998657 .3693695 .11999512 .41737367 .1619873 .41737367 .18598938 .41737367 .18598938 .39837647 .18598938 .3843689 .18598938 .36735536 .18199158 .34934999 .17298889 .3253479 .12599182 .2013092 .11299133 .15930176 .11299133 .11128235 .11299133 .00024414063 .20298767-.0107421879 .23999024-.0107421879 .2889862-.0107421879 .32398988 .01524353 .34199525 .0332489 .32899476-.017745972 .31799317-.0627594 .2789917-.11276245 .24899292-.15286255 .20899964-.18008423 .16499329-.18008423 .13699341-.18008423 .10398865-.16999817 .08999634-.14176941 .14299011-.14176941 .1499939-.09776306 .1499939-.087768558 .1499939-.06576538 .13398743-.051757814 .11199951-.051757814 .08799744-.051757814 .055999757-.07077026 .055999757-.116760257 .055999757-.16899109 .101989749-.20507813 .16499329-.20507813 .2669983-.20507813 .37599183-.117767337 .40499879-.00074768069L.5019989 .38536073Z"/>
<path id="font_11_1" d="M.49299623 .22436524H.81599429C.8299866 .22436524 .8549957 .22436524 .8549957 .2503662 .8549957 .2763672 .8299866 .2763672 .81599429 .2763672H.49299623V.60014346C.49299623 .61413577 .49299623 .63912966 .46699525 .63912966 .44099427 .63912966 .44099427 .61413577 .44099427 .60014346V.2763672H.117996219C.10398865 .2763672 .07899475 .2763672 .07899475 .2503662 .07899475 .22436524 .10398865 .22436524 .117996219 .22436524H.44099427V-.10014343C.44099427-.11416626 .44099427-.13917542 .46699525-.13917542 .49299623-.13917542 .49299623-.11416626 .49299623-.10014343V.22436524Z"/>
<path id="font_11_2" d="M.35899354 .6349335C.35899354 .66503909 .35499574 .66503909 .32499696 .66503909 .25898744 .60058596 .15699768 .60058596 .12098694 .60058596V.5615845C.14698792 .5615845 .21299744 .5615845 .272995 .58958438V.08496094C.272995 .051986696 .272995 .038986207 .16999817 .038986207H.1269989V0C.18199158 .0039978029 .2599945 .0039978029 .31599427 .0039978029 .37199403 .0039978029 .44999696 .0039978029 .5049896 0V.038986207H.46199037C.35899354 .038986207 .35899354 .051986696 .35899354 .08496094V.6349335Z"/>
<path id="font_7_1" d="M.46598817 .49519349C.46598817 .5981293 .43199159 .7050781 .33999635 .7050781 .19400025 .7050781 .040985109 .4202423 .040985109 .19825745 .040985109 .12625122 .06298828-.0107421879 .16699219-.0107421879 .31298829-.0107421879 .46598817 .27127076 .46598817 .49519349M.1499939 .36328126C.16999817 .44223023 .19099427 .5151825 .23199463 .58413699 .2559967 .62409976 .29299928 .68006899 .33898927 .68006899 .3929901 .68006899 .39698792 .59413149 .39698792 .55615237 .39698792 .4961853 .3809967 .426239 .3659973 .36328126H.1499939M.35699464 .3312683C.34098817 .26826478 .32199098 .19326782 .28199769 .12225342 .2559967 .07525635 .21598816 .014251709 .16799927 .014251709 .125 .014251709 .11099243 .06625366 .11099243 .13926697 .11099243 .20326233 .1269989 .26826478 .14199829 .3312683H.35699464Z"/>
<path id="font_10_17" d="M.55400088 0 .70799258 .52441409H.6139984L.5099945 .11607361 .40699769 .52441409H.30499269L.20498657 .11607361 .09799194 .52441409H.005996704L.1579895 0H.2519989L.35299684 .41133119 .45899964 0H.55400088Z"/>
<path id="font_10_15" d="M.2539978 .52441409H.16799927V.66841128H.084991458V.52441409H.01399231V.45640565H.084991458V.059570314C.084991458 .0065612795 .12098694-.0234375 .18598938-.0234375 .20599365-.0234375 .22599793-.021438599 .2539978-.016448975V.05355835C.24299622 .05055237 .22999573 .049560548 .21398926 .049560548 .17799378 .049560548 .16799927 .059570314 .16799927 .09664917V.45640565H.2539978V.52441409Z"/>
<path id="font_10_6" d="M.069992069 .7285156V0H.15299988V.28903199C.15299988 .39604188 .20899964 .4660492 .29499818 .4660492 .32199098 .4660492 .34899903 .4570465 .36898805 .44204713 .3929901 .42504884 .40299989 .40003968 .40299989 .3630371V0H.48599244V.39604188C.48599244 .48405458 .4229889 .5390625 .32099916 .5390625 .24699402 .5390625 .20199585 .51605227 .15299988 .45205689V.7285156H.069992069Z"/>
<path id="font_10_16" d="M.48199464-.00044250489V.52441409H.39898683V.22688294C.39898683 .11968994 .34298707 .049560548 .2559967 .049560548 .18998719 .049560548 .147995 .08963013 .147995 .15275574V.52441409H.06498718V.11968994C.06498718 .032562257 .12998963-.0234375 .23199463-.0234375 .30899049-.0234375 .35798646 .0035552979 .40699769 .07260132V-.00044250489H.48199464Z"/>
<path id="font_10_12" d="M.053985597-.21824646H.13798523V.05455017C.18199158 .0005493164 .23098755-.0234375 .29899598-.0234375 .43399049-.0234375 .522995 .08558655 .522995 .25279237 .522995 .4290161 .43699647 .5390625 .2979889 .5390625 .22698975 .5390625 .16999817 .50704959 .1309967 .44503785V.52404788H.053985597V-.21824646M.28399659 .46105958C.37599183 .46105958 .43598939 .3799591 .43598939 .25480653 .43598939 .13565064 .375 .05455017 .28399659 .05455017 .19599915 .05455017 .13798523 .13465882 .13798523 .25779725 .13798523 .38095094 .19599915 .46105958 .28399659 .46105958Z"/>
<path id="font_10_2" d="M.47099305 .34791566C.46699525 .39897157 .45599366 .4320221 .43598939 .46105958 .3999939 .51005557 .33699037 .5390625 .2639923 .5390625 .12298584 .5390625 .0309906 .4270172 .0309906 .25279237 .0309906 .08358765 .12098694-.0234375 .2630005-.0234375 .3880005-.0234375 .46699525 .05155945 .47698976 .17970276H.3929901C.3789978 .09561157 .33599855 .05355835 .2649994 .05355835 .17298889 .05355835 .117996219 .12864685 .117996219 .25279237 .117996219 .3839569 .17199707 .4620514 .2630005 .4620514 .33299256 .4620514 .3769989 .42100526 .3869934 .34791566H.47099305Z"/>
<path id="font_10_9" d="M.069992069 .52441409V0H.1539917V.32925416C.1539917 .40504457 .20899964 .4660492 .2769928 .4660492 .33898927 .4660492 .37399293 .4280548 .37399293 .3610382V0H.45799256V.32904054C.45799256 .40504457 .5130005 .4660492 .58099368 .4660492 .6419983 .4660492 .6779938 .42704774 .6779938 .3610382V0H.7619934V.3930359C.7619934 .48706056 .70799258 .5390625 .6100006 .5390625 .5399933 .5390625 .49798585 .51805117 .44898988 .4590454 .41799928 .5150604 .37599183 .5390625 .30799867 .5390625 .23799134 .5390625 .19198609 .5130615 .14698792 .45005799V.52441409H.069992069Z"/>
<path id="font_10_11" d="M.27198792 .5390625C.125 .5390625 .035995485 .434021 .035995485 .25779725 .035995485 .081588748 .12399292-.0234375 .272995-.0234375 .41999818-.0234375 .5099945 .081588748 .5099945 .25379945 .5099945 .43502809 .4229889 .5390625 .27198792 .5390625M.272995 .4620514C.36698915 .4620514 .4229889 .384964 .4229889 .25480653 .4229889 .13165283 .36499024 .05355835 .272995 .05355835 .17999268 .05355835 .12298584 .13064575 .12298584 .25779725 .12298584 .3839569 .17999268 .4620514 .272995 .4620514Z"/>
<path id="font_10_4" d="M.2579956 .52441409H.17098999V.6064148C.17098999 .64141848 .19099427 .65940859 .22898865 .65940859 .23599243 .65940859 .23899842 .65940859 .2579956 .65841677V.727417C.23899842 .7314148 .22799683 .7324219 .21099854 .7324219 .13398743 .7324219 .08799744 .6884155 .08799744 .6134186V.52441409H.017990113V.45640565H.08799744V0H.17098999V.45640565H.2579956V.52441409Z"/>
</defs>
<path transform="matrix(1,0,0,-1,251.515,148.867)" d="M71.55493 142.44298H-71.55493C-74.3061 142.44298-76.53632 140.21277-76.53632 137.4616V109.15599C-76.53632 106.40482-74.3061 104.1746-71.55493 104.1746H71.55493C74.3061 104.1746 76.53632 106.40482 76.53632 109.15599V137.4616C76.53632 140.21277 74.3061 142.44298 71.55493 142.44298ZM-76.53632 104.1746" fill="#f3f4f6"/>
<path transform="matrix(1,0,0,-1,251.515,148.867)" stroke-width=".89664" stroke-linecap="butt" stroke-miterlimit="10" stroke-linejoin="miter" fill="none" stroke="#6b7280" d="M71.55493 142.44298H-71.55493C-74.3061 142.44298-76.53632 140.21277-76.53632 137.4616V109.15599C-76.53632 106.40482-74.3061 104.1746-71.55493 104.1746H71.55493C74.3061 104.1746 76.53632 106.40482 76.53632 109.15599V137.4616C76.53632 140.21277 74.3061 142.44298 71.55493 142.44298ZM-76.53632 104.1746"/>
<use data-text="A" xlink:href="#font_1_24" transform="matrix(9.1656,0,0,-9.1656,238.486,21.083008)" fill="#1f2937"/>
<use data-text="g" xlink:href="#font_1_11" transform="matrix(9.1656,0,0,-9.1656,245.10356,21.083008)" fill="#1f2937"/>
<use data-text="e" xlink:href="#font_1_9" transform="matrix(9.1656,0,0,-9.1656,250.7954,21.083008)" fill="#1f2937"/>
<use data-text="n" xlink:href="#font_1_15" transform="matrix(9.1656,0,0,-9.1656,255.89147,21.083008)" fill="#1f2937"/>
<use data-text="t" xlink:href="#font_1_19" transform="matrix(9.1656,0,0,-9.1656,261.49165,21.083008)" fill="#1f2937"/>
<use data-text="a" xlink:href="#font_2_4" transform="matrix(9.9626,0,0,-9.9626,223.89,34.033998)" fill="#1f2937"/>
<use data-text="t" xlink:href="#font_3_2" transform="matrix(6.9738,0,0,-6.9738,229.157,35.52899)" fill="#1f2937"/>
<use data-text="&#x223c;" xlink:href="#font_4_2" transform="matrix(9.9626,0,0,-9.9626,235.43199,34.033998)" fill="#1f2937"/>
<use data-text="&#x03c0;" xlink:href="#font_2_1" transform="matrix(9.9626,0,0,-9.9626,245.948,34.033998)" fill="#1f2937"/>
<use data-text="(" xlink:href="#font_5_1" transform="matrix(9.9626,0,0,-9.9626,251.984,34.033998)" fill="#1f2937"/>
<use data-text="&#x00b7;" xlink:href="#font_4_1" transform="matrix(9.9626,0,0,-9.9626,255.85799,34.033998)" fill="#1f2937"/>
<use data-text="|" xlink:href="#font_4_3" transform="matrix(9.9626,0,0,-9.9626,261.3972,34.033998)" fill="#1f2937"/>
<use data-text="&#x02dc;" xlink:href="#font_5_3" transform="matrix(9.9626,0,0,-9.9626,267.405,34.033998)" fill="#1f2937"/>
<use data-text="o" xlink:href="#font_2_5" transform="matrix(9.9626,0,0,-9.9626,266.928,34.033998)" fill="#1f2937"/>
<use data-text="t" xlink:href="#font_3_2" transform="matrix(6.9738,0,0,-6.9738,271.75703,35.52899)" fill="#1f2937"/>
<use data-text=")" xlink:href="#font_5_2" transform="matrix(9.9626,0,0,-9.9626,275.265,34.033998)" fill="#1f2937"/>
<path transform="matrix(1,0,0,-1,251.515,148.867)" d="M71.55493 36.14223H-71.55493C-74.3061 36.14223-76.53632 33.91202-76.53632 31.16084V-31.16084C-76.53632-33.91202-74.3061-36.14223-71.55493-36.14223H71.55493C74.3061-36.14223 76.53632-33.91202 76.53632-31.16084V31.16084C76.53632 33.91202 74.3061 36.14223 71.55493 36.14223ZM-76.53632-36.14223" fill="#f3f4f6"/>
<path transform="matrix(1,0,0,-1,251.515,148.867)" stroke-width=".89664" stroke-linecap="butt" stroke-miterlimit="10" stroke-linejoin="miter" fill="none" stroke="#6b7280" d="M71.55493 36.14223H-71.55493C-74.3061 36.14223-76.53632 33.91202-76.53632 31.16084V-31.16084C-76.53632-33.91202-74.3061-36.14223-71.55493-36.14223H71.55493C74.3061-36.14223 76.53632-33.91202 76.53632-31.16084V31.16084C76.53632 33.91202 74.3061 36.14223 71.55493 36.14223ZM-76.53632-36.14223"/>
<use data-text="E" xlink:href="#font_1_2" transform="matrix(9.1656,0,0,-9.1656,223.78,125.61801)" fill="#1f2937"/>
<use data-text="n" xlink:href="#font_1_15" transform="matrix(9.1656,0,0,-9.1656,229.89345,125.61801)" fill="#1f2937"/>
<use data-text="v" xlink:href="#font_1_20" transform="matrix(9.1656,0,0,-9.1656,235.127,125.61801)" fill="#1f2937"/>
<use data-text="i" xlink:href="#font_1_13" transform="matrix(9.1656,0,0,-9.1656,240.22307,125.61801)" fill="#1f2937"/>
<use data-text="r" xlink:href="#font_1_17" transform="matrix(9.1656,0,0,-9.1656,242.7711,125.61801)" fill="#1f2937"/>
<use data-text="o" xlink:href="#font_1_16" transform="matrix(9.1656,0,0,-9.1656,246.1532,125.61801)" fill="#1f2937"/>
<use data-text="n" xlink:href="#font_1_15" transform="matrix(9.1656,0,0,-9.1656,251.75339,125.61801)" fill="#1f2937"/>
<use data-text="m" xlink:href="#font_1_14" transform="matrix(9.1656,0,0,-9.1656,257.35359,125.61801)" fill="#1f2937"/>
<use data-text="e" xlink:href="#font_1_9" transform="matrix(9.1656,0,0,-9.1656,265.5018,125.61801)" fill="#1f2937"/>
<use data-text="n" xlink:href="#font_1_15" transform="matrix(9.1656,0,0,-9.1656,270.59788,125.61801)" fill="#1f2937"/>
<use data-text="t" xlink:href="#font_1_19" transform="matrix(9.1656,0,0,-9.1656,276.19807,125.61801)" fill="#1f2937"/>
<path transform="matrix(1,0,0,-1,251.515,148.867)" d="M61.63359 9.26222H-61.63359C-64.38477 9.26222-66.61497 7.03201-66.61497 4.28084V-25.44176C-66.61497-28.19293-64.38477-30.42314-61.63359-30.42314H61.63359C64.38477-30.42314 66.61497-28.19293 66.61497-25.44176V4.28084C66.61497 7.03201 64.38477 9.26222 61.63359 9.26222ZM-66.61497-30.42314" fill="#ffffff"/>
<path transform="matrix(1,0,0,-1,251.515,148.867)" stroke-width=".99628" stroke-linecap="butt" stroke-miterlimit="10" stroke-linejoin="miter" fill="none" stroke="#b4b9c1" d="M61.63359 9.26222H-61.63359C-64.38477 9.26222-66.61497 7.03201-66.61497 4.28084V-25.44176C-66.61497-28.19293-64.38477-30.42314-61.63359-30.42314H61.63359C64.38477-30.42314 66.61497-28.19293 66.61497-25.44176V4.28084C66.61497 7.03201 64.38477 9.26222 61.63359 9.26222ZM-66.61497-30.42314"/>
<use data-text="D" xlink:href="#font_1_1" transform="matrix(9.1656,0,0,-9.1656,221.466,161.841)" fill="#b4b9c1"/>
<use data-text="y" xlink:href="#font_1_22" transform="matrix(9.1656,0,0,-9.1656,228.08358,161.841)" fill="#b4b9c1"/>
<use data-text="n" xlink:href="#font_1_15" transform="matrix(9.1656,0,0,-9.1656,233.17964,161.841)" fill="#b4b9c1"/>
<use data-text="a" xlink:href="#font_1_5" transform="matrix(9.1656,0,0,-9.1656,238.77982,161.841)" fill="#b4b9c1"/>
<use data-text="m" xlink:href="#font_1_14" transform="matrix(9.1656,0,0,-9.1656,243.87589,161.841)" fill="#b4b9c1"/>
<use data-text="i" xlink:href="#font_1_13" transform="matrix(9.1656,0,0,-9.1656,252.02411,161.841)" fill="#b4b9c1"/>
<use data-text="c" xlink:href="#font_1_7" transform="matrix(9.1656,0,0,-9.1656,254.57215,161.841)" fill="#b4b9c1"/>
<use data-text="s" xlink:href="#font_1_18" transform="matrix(9.1656,0,0,-9.1656,262.21626,161.841)" fill="#b4b9c1"/>
<use data-text="h" xlink:href="#font_1_12" transform="matrix(9.1656,0,0,-9.1656,267.31233,161.841)" fill="#b4b9c1"/>
<use data-text="i" xlink:href="#font_1_13" transform="matrix(9.1656,0,0,-9.1656,272.9125,161.841)" fill="#b4b9c1"/>
<use data-text="f" xlink:href="#font_1_10" transform="matrix(9.1656,0,0,-9.1656,275.46055,161.841)" fill="#b4b9c1"/>
<use data-text="t" xlink:href="#font_1_19" transform="matrix(9.1656,0,0,-9.1656,278.5127,161.841)" fill="#b4b9c1"/>
<path transform="matrix(1,0,0,-1,251.515,148.867)" d="M-94.27406 84.33171H-223.21053C-225.9617 84.33171-228.19191 82.1015-228.19191 79.35033V45.37546C-228.19191 42.62427-225.9617 40.39407-223.21053 40.39407H-94.27406C-91.52287 40.39407-89.29268 42.62427-89.29268 45.37546V79.35033C-89.29268 82.1015-91.52287 84.33171-94.27406 84.33171ZM-228.19191 40.39407" fill="#ffffff"/>
<path transform="matrix(1,0,0,-1,251.515,148.867)" stroke-width=".99628" stroke-linecap="butt" stroke-miterlimit="10" stroke-linejoin="miter" fill="none" stroke="#b4b9c1" d="M-94.27406 84.33171H-223.21053C-225.9617 84.33171-228.19191 82.1015-228.19191 79.35033V45.37546C-228.19191 42.62427-225.9617 40.39407-223.21053 40.39407H-94.27406C-91.52287 40.39407-89.29268 42.62427-89.29268 45.37546V79.35033C-89.29268 82.1015-91.52287 84.33171-94.27406 84.33171ZM-228.19191 40.39407"/>
<use data-text="O" xlink:href="#font_1_3" transform="matrix(9.1656,0,0,-9.1656,55.132005,89.79001)" fill="#b4b9c1"/>
<use data-text="b" xlink:href="#font_1_6" transform="matrix(9.1656,0,0,-9.1656,62.26284,89.79001)" fill="#b4b9c1"/>
<use data-text="s" xlink:href="#font_1_18" transform="matrix(9.1656,0,0,-9.1656,67.86302,89.79001)" fill="#b4b9c1"/>
<use data-text="e" xlink:href="#font_1_9" transform="matrix(9.1656,0,0,-9.1656,72.95911,89.79001)" fill="#b4b9c1"/>
<use data-text="r" xlink:href="#font_1_17" transform="matrix(9.1656,0,0,-9.1656,78.055179,89.79001)" fill="#b4b9c1"/>
<use data-text="v" xlink:href="#font_1_20" transform="matrix(9.1656,0,0,-9.1656,81.712268,89.79001)" fill="#b4b9c1"/>
<use data-text="a" xlink:href="#font_1_5" transform="matrix(9.1656,0,0,-9.1656,86.62503,89.79001)" fill="#b4b9c1"/>
<use data-text="t" xlink:href="#font_1_19" transform="matrix(9.1656,0,0,-9.1656,91.7211,89.79001)" fill="#b4b9c1"/>
<use data-text="i" xlink:href="#font_1_13" transform="matrix(9.1656,0,0,-9.1656,94.773258,89.79001)" fill="#b4b9c1"/>
<use data-text="o" xlink:href="#font_1_16" transform="matrix(9.1656,0,0,-9.1656,97.32129,89.79001)" fill="#b4b9c1"/>
<use data-text="n" xlink:href="#font_1_15" transform="matrix(9.1656,0,0,-9.1656,102.92146,89.79001)" fill="#b4b9c1"/>
<use data-text="s" xlink:href="#font_1_18" transform="matrix(9.1656,0,0,-9.1656,111.06969,89.79001)" fill="#b4b9c1"/>
<use data-text="h" xlink:href="#font_1_12" transform="matrix(9.1656,0,0,-9.1656,116.16576,89.79001)" fill="#b4b9c1"/>
<use data-text="i" xlink:href="#font_1_13" transform="matrix(9.1656,0,0,-9.1656,121.765949,89.79001)" fill="#b4b9c1"/>
<use data-text="f" xlink:href="#font_1_10" transform="matrix(9.1656,0,0,-9.1656,124.31398,89.79001)" fill="#b4b9c1"/>
<use data-text="t" xlink:href="#font_1_19" transform="matrix(9.1656,0,0,-9.1656,127.36612,89.79001)" fill="#b4b9c1"/>
<path transform="matrix(1,0,0,-1,251.515,148.867)" d="M223.21053 84.33171H94.27406C91.52287 84.33171 89.29268 82.1015 89.29268 79.35033V45.37546C89.29268 42.62427 91.52287 40.39407 94.27406 40.39407H223.21053C225.9617 40.39407 228.19191 42.62427 228.19191 45.37546V79.35033C228.19191 82.1015 225.9617 84.33171 223.21053 84.33171ZM89.29268 40.39407" fill="#e9f5e6"/>
<path transform="matrix(1,0,0,-1,251.515,148.867)" stroke-width=".99628" stroke-linecap="butt" stroke-miterlimit="10" stroke-linejoin="miter" fill="none" stroke="#3d9a57" d="M223.21053 84.33171H94.27406C91.52287 84.33171 89.29268 82.1015 89.29268 79.35033V45.37546C89.29268 42.62427 91.52287 40.39407 94.27406 40.39407H223.21053C225.9617 40.39407 228.19191 42.62427 228.19191 45.37546V79.35033C228.19191 82.1015 225.9617 84.33171 223.21053 84.33171ZM89.29268 40.39407"/>
<use data-text="A" xlink:href="#font_1_24" transform="matrix(9.1656,0,0,-9.1656,385.05,82.127017)" fill="#3d9a57"/>
<use data-text="c" xlink:href="#font_1_7" transform="matrix(9.1656,0,0,-9.1656,391.66755,82.127017)" fill="#3d9a57"/>
<use data-text="t" xlink:href="#font_1_19" transform="matrix(9.1656,0,0,-9.1656,396.7636,82.127017)" fill="#3d9a57"/>
<use data-text="i" xlink:href="#font_1_13" transform="matrix(9.1656,0,0,-9.1656,399.81578,82.127017)" fill="#3d9a57"/>
<use data-text="o" xlink:href="#font_1_16" transform="matrix(9.1656,0,0,-9.1656,402.3638,82.127017)" fill="#3d9a57"/>
<use data-text="n" xlink:href="#font_1_15" transform="matrix(9.1656,0,0,-9.1656,407.964,82.127017)" fill="#3d9a57"/>
<use data-text="s" xlink:href="#font_1_18" transform="matrix(9.1656,0,0,-9.1656,416.1122,82.127017)" fill="#3d9a57"/>
<use data-text="h" xlink:href="#font_1_12" transform="matrix(9.1656,0,0,-9.1656,421.20829,82.127017)" fill="#3d9a57"/>
<use data-text="i" xlink:href="#font_1_13" transform="matrix(9.1656,0,0,-9.1656,426.80848,82.127017)" fill="#3d9a57"/>
<use data-text="f" xlink:href="#font_1_10" transform="matrix(9.1656,0,0,-9.1656,429.3565,82.127017)" fill="#3d9a57"/>
<use data-text="t" xlink:href="#font_1_19" transform="matrix(9.1656,0,0,-9.1656,432.40867,82.127017)" fill="#3d9a57"/>
<use data-text="&#x02dc;" xlink:href="#font_5_3" transform="matrix(9.9626,0,0,-9.9626,371.102,95.07802)" fill="#1f2937"/>
<use data-text="a" xlink:href="#font_2_4" transform="matrix(9.9626,0,0,-9.9626,370.96,95.07802)" fill="#1f2937"/>
<use data-text="t" xlink:href="#font_3_2" transform="matrix(6.9738,0,0,-6.9738,376.22599,96.57202)" fill="#1f2937"/>
<use data-text="&#x223c;" xlink:href="#font_4_2" transform="matrix(9.9626,0,0,-9.9626,382.50099,95.07802)" fill="#1f2937"/>
<use data-text="A" xlink:href="#font_2_3" transform="matrix(9.9626,0,0,-9.9626,393.01698,95.07802)" fill="#1f2937"/>
<use data-text="&#x03b8;" xlink:href="#font_3_1" transform="matrix(6.9738,0,0,-6.9738,400.48896,96.57202)" fill="#1f2937"/>
<use data-text="a" xlink:href="#font_6_1" transform="matrix(4.9813,0,0,-4.9813,404.49797,94.58002)" fill="#1f2937"/>
<use data-text="(" xlink:href="#font_5_1" transform="matrix(9.9626,0,0,-9.9626,409.35197,95.07802)" fill="#1f2937"/>
<use data-text="&#x00b7;" xlink:href="#font_4_1" transform="matrix(9.9626,0,0,-9.9626,413.22697,95.07802)" fill="#1f2937"/>
<use data-text="|" xlink:href="#font_4_3" transform="matrix(9.9626,0,0,-9.9626,418.76615,95.07802)" fill="#1f2937"/>
<use data-text="s" xlink:href="#font_2_6" transform="matrix(9.9626,0,0,-9.9626,424.29597,95.07802)" fill="#1f2937"/>
<use data-text="t" xlink:href="#font_3_2" transform="matrix(6.9738,0,0,-6.9738,428.96598,96.57202)" fill="#1f2937"/>
<use data-text="," xlink:href="#font_2_2" transform="matrix(9.9626,0,0,-9.9626,432.47398,95.07802)" fill="#1f2937"/>
<use data-text="a" xlink:href="#font_2_4" transform="matrix(9.9626,0,0,-9.9626,436.90733,95.07802)" fill="#1f2937"/>
<use data-text="t" xlink:href="#font_3_2" transform="matrix(6.9738,0,0,-6.9738,442.16798,96.57202)" fill="#1f2937"/>
<use data-text=")" xlink:href="#font_5_2" transform="matrix(9.9626,0,0,-9.9626,445.67597,95.07802)" fill="#1f2937"/>
<path transform="matrix(1,0,0,-1,251.515,148.867)" d="M111.24052-70.1583H-111.24052C-113.99171-70.1583-116.22191-72.3885-116.22191-75.13968V-109.11455C-116.22191-111.86572-113.99171-114.09593-111.24052-114.09593H111.24052C113.99171-114.09593 116.22191-111.86572 116.22191-109.11455V-75.13968C116.22191-72.3885 113.99171-70.1583 111.24052-70.1583ZM-116.22191-114.09593" fill="#ffffff"/>
<path transform="matrix(1,0,0,-1,251.515,148.867)" stroke-width=".99628" stroke-linecap="butt" stroke-miterlimit="10" stroke-linejoin="miter" fill="none" stroke="#b4b9c1" d="M111.24052-70.1583H-111.24052C-113.99171-70.1583-116.22191-72.3885-116.22191-75.13968V-109.11455C-116.22191-111.86572-113.99171-114.09593-111.24052-114.09593H111.24052C113.99171-114.09593 116.22191-111.86572 116.22191-109.11455V-75.13968C116.22191-72.3885 113.99171-70.1583 111.24052-70.1583ZM-116.22191-114.09593"/>
<use data-text="R" xlink:href="#font_1_4" transform="matrix(9.1656,0,0,-9.1656,213.478,244.27802)" fill="#b4b9c1"/>
<use data-text="e" xlink:href="#font_1_9" transform="matrix(9.1656,0,0,-9.1656,220.09557,244.27802)" fill="#b4b9c1"/>
<use data-text="w" xlink:href="#font_1_21" transform="matrix(9.1656,0,0,-9.1656,225.05416,244.27802)" fill="#b4b9c1"/>
<use data-text="a" xlink:href="#font_1_5" transform="matrix(9.1656,0,0,-9.1656,232.185,244.27802)" fill="#b4b9c1"/>
<use data-text="r" xlink:href="#font_1_17" transform="matrix(9.1656,0,0,-9.1656,237.28107,244.27802)" fill="#b4b9c1"/>
<use data-text="d" xlink:href="#font_1_8" transform="matrix(9.1656,0,0,-9.1656,240.66316,244.27802)" fill="#b4b9c1"/>
<use data-text="/" xlink:href="#font_1_23" transform="matrix(9.1656,0,0,-9.1656,246.26334,244.27802)" fill="#b4b9c1"/>
<use data-text="c" xlink:href="#font_1_7" transform="matrix(9.1656,0,0,-9.1656,248.81137,244.27802)" fill="#b4b9c1"/>
<use data-text="o" xlink:href="#font_1_16" transform="matrix(9.1656,0,0,-9.1656,253.90744,244.27802)" fill="#b4b9c1"/>
<use data-text="s" xlink:href="#font_1_18" transform="matrix(9.1656,0,0,-9.1656,259.50764,244.27802)" fill="#b4b9c1"/>
<use data-text="t" xlink:href="#font_1_19" transform="matrix(9.1656,0,0,-9.1656,264.6037,244.27802)" fill="#b4b9c1"/>
<use data-text="s" xlink:href="#font_1_18" transform="matrix(9.1656,0,0,-9.1656,270.2039,244.27802)" fill="#b4b9c1"/>
<use data-text="h" xlink:href="#font_1_12" transform="matrix(9.1656,0,0,-9.1656,275.29997,244.27802)" fill="#b4b9c1"/>
<use data-text="i" xlink:href="#font_1_13" transform="matrix(9.1656,0,0,-9.1656,280.90016,244.27802)" fill="#b4b9c1"/>
<use data-text="f" xlink:href="#font_1_10" transform="matrix(9.1656,0,0,-9.1656,283.44819,244.27802)" fill="#b4b9c1"/>
<use data-text="t" xlink:href="#font_1_19" transform="matrix(9.1656,0,0,-9.1656,286.50035,244.27802)" fill="#b4b9c1"/>
<path transform="matrix(1,0,0,-1,251.515,148.867)" stroke-width=".89664" stroke-linecap="butt" stroke-miterlimit="10" stroke-linejoin="miter" fill="none" stroke="#4b5563" d="M-76.98463 0H-158.7423V36.20538"/>
<path transform="matrix(0,-1,-1,-0,92.772708,114.94873)" d="M4.81203 0 1.35765 1.45523 2.51126 0 1.35765-1.45523Z" fill="#4b5563"/>
<path transform="matrix(0,-1,-1,-0,92.772708,114.94873)" stroke-width=".89664" stroke-linecap="butt" stroke-miterlimit="10" stroke-linejoin="miter" fill="none" stroke="#4b5563" d="M4.81203 0 1.35765 1.45523 2.51126 0 1.35765-1.45523Z"/>
<path transform="matrix(1,0,0,-1,251.515,148.867)" d="M-123.27826-4.02245H-112.44866V4.02245H-123.27826Z" fill="#ffffff"/>
<use data-text="s" xlink:href="#font_7_7" transform="matrix(8.9664,0,0,-8.9664,129.832,150.29901)" fill="#4b5563"/>
<use data-text="t" xlink:href="#font_8_1" transform="matrix(5.9776,0,0,-5.9776,134.125,151.29502)" fill="#4b5563"/>
<path transform="matrix(1,0,0,-1,251.515,148.867)" stroke-width=".89664" stroke-linecap="butt" stroke-miterlimit="10" stroke-linejoin="miter" fill="none" stroke="#4b5563" d="M-158.7423 84.82985V117.07246H-80.67517"/>
<path transform="matrix(1,0,0,-1,168.5527,31.794548)" d="M4.81203 0 1.35765 1.45523 2.51126 0 1.35765-1.45523Z" fill="#4b5563"/>
<path transform="matrix(1,0,0,-1,168.5527,31.794548)" stroke-width=".89664" stroke-linecap="butt" stroke-miterlimit="10" stroke-linejoin="miter" fill="none" stroke="#4b5563" d="M4.81203 0 1.35765 1.45523 2.51126 0 1.35765-1.45523Z"/>
<path transform="matrix(1,0,0,-1,251.515,148.867)" d="M-123.36235 111.98058H-112.36461V122.164348H-123.36235Z" fill="#ffffff"/>
<use data-text="&#x02dc;" xlink:href="#font_9_4" transform="matrix(8.9664,0,0,-8.9664,130.187,34.296998)" fill="#4b5563"/>
<use data-text="o" xlink:href="#font_7_5" transform="matrix(8.9664,0,0,-8.9664,129.748,34.296998)" fill="#4b5563"/>
<use data-text="t" xlink:href="#font_8_1" transform="matrix(5.9776,0,0,-5.9776,134.209,35.293)" fill="#4b5563"/>
<path transform="matrix(1,0,0,-1,251.515,148.867)" stroke-width=".89664" stroke-linecap="butt" stroke-miterlimit="10" stroke-linejoin="miter" fill="none" stroke="#4b5563" d="M76.98463 123.30879H158.7423V88.52039"/>
<path transform="matrix(0,1,1,0,410.2573,58.059495)" d="M4.81203 0 1.35765 1.45523 2.51126 0 1.35765-1.45523Z" fill="#4b5563"/>
<path transform="matrix(0,1,1,0,410.2573,58.059495)" stroke-width=".89664" stroke-linecap="butt" stroke-miterlimit="10" stroke-linejoin="miter" fill="none" stroke="#4b5563" d="M4.81203 0 1.35765 1.45523 2.51126 0 1.35765-1.45523Z"/>
<path transform="matrix(1,0,0,-1,251.515,148.867)" d="M112.1541 119.28633H123.572818V127.33123H112.1541Z" fill="#ffffff"/>
<use data-text="a" xlink:href="#font_7_3" transform="matrix(8.9664,0,0,-8.9664,365.261,26.992005)" fill="#4b5563"/>
<use data-text="t" xlink:href="#font_8_1" transform="matrix(5.9776,0,0,-5.9776,370.14299,27.988007)" fill="#4b5563"/>
<path transform="matrix(1,0,0,-1,251.515,148.867)" stroke-width=".89664" stroke-linecap="butt" stroke-miterlimit="10" stroke-linejoin="miter" fill="none" stroke="#4b5563" d="M158.7423 39.89594V0H80.67517"/>
<path transform="matrix(-1,-0,0,1,334.4773,148.867)" d="M4.81203 0 1.35765 1.45523 2.51126 0 1.35765-1.45523Z" fill="#4b5563"/>
<path transform="matrix(-1,-0,0,1,334.4773,148.867)" stroke-width=".89664" stroke-linecap="butt" stroke-miterlimit="10" stroke-linejoin="miter" fill="none" stroke="#4b5563" d="M4.81203 0 1.35765 1.45523 2.51126 0 1.35765-1.45523Z"/>
<path transform="matrix(1,0,0,-1,251.515,148.867)" d="M112.15411-5.09187H123.57283V5.09189H112.15411Z" fill="#ffffff"/>
<use data-text="&#x02dc;" xlink:href="#font_9_4" transform="matrix(8.9664,0,0,-8.9664,365.399,151.36801)" fill="#4b5563"/>
<use data-text="a" xlink:href="#font_7_3" transform="matrix(8.9664,0,0,-8.9664,365.261,151.36801)" fill="#4b5563"/>
<use data-text="t" xlink:href="#font_8_1" transform="matrix(5.9776,0,0,-5.9776,370.14299,152.36402)" fill="#4b5563"/>
<path transform="matrix(1,0,0,-1,251.515,148.867)" stroke-width=".89664" stroke-linecap="butt" stroke-miterlimit="10" stroke-linejoin="miter" fill="none" stroke="#4b5563" d="M0-36.59055V-65.96962"/>
<path transform="matrix(0,1,1,0,251.515,212.5495)" d="M4.81203 0 1.35765 1.45523 2.51126 0 1.35765-1.45523Z" fill="#4b5563"/>
<path transform="matrix(0,1,1,0,251.515,212.5495)" stroke-width=".89664" stroke-linecap="butt" stroke-miterlimit="10" stroke-linejoin="miter" fill="none" stroke="#4b5563" d="M4.81203 0 1.35765 1.45523 2.51126 0 1.35765-1.45523Z"/>
<path transform="matrix(1,0,0,-1,251.515,148.867)" d="M-12.34424-57.52141H12.34425V-48.7293H-12.34424Z" fill="#ffffff"/>
<use data-text="r" xlink:href="#font_7_6" transform="matrix(8.9664,0,0,-8.9664,240.765,203.05002)" fill="#4b5563"/>
<use data-text="t" xlink:href="#font_8_1" transform="matrix(5.9776,0,0,-5.9776,244.923,204.04602)" fill="#4b5563"/>
<use data-text="," xlink:href="#font_7_2" transform="matrix(8.9664,0,0,-8.9664,248.27101,203.05002)" fill="#4b5563"/>
<use data-text="c" xlink:href="#font_7_4" transform="matrix(8.9664,0,0,-8.9664,254.93305,203.05002)" fill="#4b5563"/>
<use data-text="t" xlink:href="#font_8_1" transform="matrix(5.9776,0,0,-5.9776,258.91603,204.04602)" fill="#4b5563"/>
<path transform="matrix(1,0,0,-1,251.515,148.867)" stroke-width=".89664" stroke-linecap="butt" stroke-dasharray="2.98883,2.98883" stroke-miterlimit="10" stroke-linejoin="miter" fill="none" stroke="#4b5563" d="M-116.72005-92.1271H-240.02886V131.81291H-80.67517"/>
<path transform="matrix(1,0,0,-1,168.5527,17.054093)" d="M4.81203 0 1.35765 1.45523 2.51126 0 1.35765-1.45523Z" fill="#4b5563"/>
<path transform="matrix(1,0,0,-1,168.5527,17.054093)" stroke-width=".89664" stroke-linecap="butt" stroke-miterlimit="10" stroke-linejoin="miter" fill="none" stroke="#4b5563" d="M4.81203 0 1.35765 1.45523 2.51126 0 1.35765-1.45523Z"/>
<path transform="matrix(1,0,0,-1,251.515,148.867)" d="M-245.54032 65.13733V-16.49887H-234.51738V65.13733ZM-234.51738-16.49887" fill="#ffffff"/>
<use data-text="l" xlink:href="#font_10_8" transform="matrix(0,-8.249,-8.249,-0,13.570999,163.77101)" fill="#4b5563"/>
<use data-text="e" xlink:href="#font_10_3" transform="matrix(0,-8.249,-8.249,-0,13.570999,161.93973)" fill="#4b5563"/>
<use data-text="a" xlink:href="#font_10_1" transform="matrix(0,-8.249,-8.249,-0,13.570999,157.35329)" fill="#4b5563"/>
<use data-text="r" xlink:href="#font_10_13" transform="matrix(0,-8.249,-8.249,-0,13.570999,152.76685)" fill="#4b5563"/>
<use data-text="n" xlink:href="#font_10_10" transform="matrix(0,-8.249,-8.249,-0,13.570999,149.8137)" fill="#4b5563"/>
<use data-text="i" xlink:href="#font_10_7" transform="matrix(0,-8.249,-8.249,-0,13.570999,145.22727)" fill="#4b5563"/>
<use data-text="n" xlink:href="#font_10_10" transform="matrix(0,-8.249,-8.249,-0,13.570999,143.39598)" fill="#4b5563"/>
<use data-text="g" xlink:href="#font_10_5" transform="matrix(0,-8.249,-8.249,-0,13.570999,138.80954)" fill="#4b5563"/>
<use data-text="s" xlink:href="#font_10_14" transform="matrix(0,-8.249,-8.249,-0,13.570999,131.92987)" fill="#4b5563"/>
<use data-text="i" xlink:href="#font_10_7" transform="matrix(0,-8.249,-8.249,-0,13.570999,127.80537)" fill="#4b5563"/>
<use data-text="g" xlink:href="#font_10_5" transform="matrix(0,-8.249,-8.249,-0,13.570999,125.97409)" fill="#4b5563"/>
<use data-text="n" xlink:href="#font_10_10" transform="matrix(0,-8.249,-8.249,-0,13.570999,121.38764)" fill="#4b5563"/>
<use data-text="a" xlink:href="#font_10_1" transform="matrix(0,-8.249,-8.249,-0,13.570999,116.80119)" fill="#4b5563"/>
<use data-text="l" xlink:href="#font_10_8" transform="matrix(0,-8.249,-8.249,-0,13.570999,112.21475)" fill="#4b5563"/>
<use data-text="&#x02dc;" xlink:href="#font_9_4" transform="matrix(0,-8.9664,-8.9664,-0,13.570999,105.38501)" fill="#4b5563"/>
<use data-text="r" xlink:href="#font_7_6" transform="matrix(0,-8.9664,-8.9664,-0,13.570999,105.80001)" fill="#4b5563"/>
<use data-text="t" xlink:href="#font_8_1" transform="matrix(0,-5.9776,-5.9776,-0,14.567001,101.64201)" fill="#4b5563"/>
<use data-text="," xlink:href="#font_7_2" transform="matrix(0,-8.9664,-8.9664,-0,13.570999,98.294017)" fill="#4b5563"/>
<use data-text="&#x02dc;" xlink:href="#font_9_4" transform="matrix(0,-8.9664,-8.9664,-0,13.570999,92.459018)" fill="#4b5563"/>
<use data-text="c" xlink:href="#font_7_4" transform="matrix(0,-8.9664,-8.9664,-0,13.570999,92.66202)" fill="#4b5563"/>
<use data-text="t" xlink:href="#font_8_1" transform="matrix(0,-5.9776,-5.9776,-0,14.567001,88.67202)" fill="#4b5563"/>
<use data-text="x" xlink:href="#font_7_8" transform="matrix(8.9664,0,0,-8.9664,87.91901,287.82203)" fill="#4b5563"/>
<use data-text="t" xlink:href="#font_8_1" transform="matrix(5.9776,0,0,-5.9776,93.142009,288.818)" fill="#4b5563"/>
<use data-text="=" xlink:href="#font_9_3" transform="matrix(8.9664,0,0,-8.9664,99.051,287.82203)" fill="#4b5563"/>
<use data-text="(" xlink:href="#font_9_1" transform="matrix(8.9664,0,0,-8.9664,108.770587,287.82203)" fill="#4b5563"/>
<use data-text="s" xlink:href="#font_7_7" transform="matrix(8.9664,0,0,-8.9664,112.362,287.82203)" fill="#4b5563"/>
<use data-text="t" xlink:href="#font_8_1" transform="matrix(5.9776,0,0,-5.9776,116.655,288.818)" fill="#4b5563"/>
<use data-text="," xlink:href="#font_7_2" transform="matrix(8.9664,0,0,-8.9664,120.003,287.82203)" fill="#4b5563"/>
<use data-text="&#x02dc;" xlink:href="#font_9_4" transform="matrix(8.9664,0,0,-8.9664,124.236,287.82203)" fill="#4b5563"/>
<use data-text="a" xlink:href="#font_7_3" transform="matrix(8.9664,0,0,-8.9664,124.099,287.82203)" fill="#4b5563"/>
<use data-text="t" xlink:href="#font_8_1" transform="matrix(5.9776,0,0,-5.9776,128.98099,288.818)" fill="#4b5563"/>
<use data-text=")" xlink:href="#font_9_2" transform="matrix(8.9664,0,0,-8.9664,132.32901,287.82203)" fill="#4b5563"/>
<use data-text="y" xlink:href="#font_7_9" transform="matrix(8.9664,0,0,-8.9664,154.70401,287.82203)" fill="#4b5563"/>
<use data-text="t" xlink:href="#font_8_1" transform="matrix(5.9776,0,0,-5.9776,159.24301,288.818)" fill="#4b5563"/>
<use data-text="=" xlink:href="#font_9_3" transform="matrix(8.9664,0,0,-8.9664,165.151,287.82203)" fill="#4b5563"/>
<use data-text="(" xlink:href="#font_9_1" transform="matrix(8.9664,0,0,-8.9664,174.87058,287.82203)" fill="#4b5563"/>
<use data-text="s" xlink:href="#font_7_7" transform="matrix(8.9664,0,0,-8.9664,178.462,287.82203)" fill="#4b5563"/>
<use data-text="t" xlink:href="#font_8_1" transform="matrix(5.9776,0,0,-5.9776,182.755,288.818)" fill="#4b5563"/>
<use data-text="," xlink:href="#font_7_2" transform="matrix(8.9664,0,0,-8.9664,186.104,287.82203)" fill="#4b5563"/>
<use data-text="&#x02dc;" xlink:href="#font_9_4" transform="matrix(8.9664,0,0,-8.9664,190.337,287.82203)" fill="#4b5563"/>
<use data-text="a" xlink:href="#font_7_3" transform="matrix(8.9664,0,0,-8.9664,190.199,287.82203)" fill="#4b5563"/>
<use data-text="t" xlink:href="#font_8_1" transform="matrix(5.9776,0,0,-5.9776,195.08103,288.818)" fill="#4b5563"/>
<use data-text="," xlink:href="#font_7_2" transform="matrix(8.9664,0,0,-8.9664,198.43003,287.82203)" fill="#4b5563"/>
<use data-text="s" xlink:href="#font_7_7" transform="matrix(8.9664,0,0,-8.9664,202.52765,287.82203)" fill="#4b5563"/>
<use data-text="t" xlink:href="#font_8_1" transform="matrix(5.9776,0,0,-5.9776,206.819,288.818)" fill="#4b5563"/>
<use data-text="+" xlink:href="#font_11_1" transform="matrix(5.9776,0,0,-5.9776,209.669,288.818)" fill="#4b5563"/>
<use data-text="1" xlink:href="#font_11_2" transform="matrix(5.9776,0,0,-5.9776,215.25806,288.818)" fill="#4b5563"/>
<use data-text=")" xlink:href="#font_9_2" transform="matrix(8.9664,0,0,-8.9664,219.41,287.82203)" fill="#4b5563"/>
<use data-text="&#x03b8;" xlink:href="#font_7_1" transform="matrix(8.9664,0,0,-8.9664,241.785,287.82203)" fill="#4b5563"/>
<use data-text="w" xlink:href="#font_10_17" transform="matrix(8.249,0,0,-8.249,248.64801,287.82203)" fill="#4b5563"/>
<use data-text="i" xlink:href="#font_10_7" transform="matrix(8.249,0,0,-8.249,254.60379,287.82203)" fill="#4b5563"/>
<use data-text="t" xlink:href="#font_10_15" transform="matrix(8.249,0,0,-8.249,256.43507,287.82203)" fill="#4b5563"/>
<use data-text="h" xlink:href="#font_10_6" transform="matrix(8.249,0,0,-8.249,258.72828,287.82203)" fill="#4b5563"/>
<use data-text="a" xlink:href="#font_10_1" transform="matrix(8.249,0,0,-8.249,265.60795,287.82203)" fill="#4b5563"/>
<use data-text="s" xlink:href="#font_10_14" transform="matrix(8.249,0,0,-8.249,272.4876,287.82203)" fill="#4b5563"/>
<use data-text="u" xlink:href="#font_10_16" transform="matrix(8.249,0,0,-8.249,276.61213,287.82203)" fill="#4b5563"/>
<use data-text="p" xlink:href="#font_10_12" transform="matrix(8.249,0,0,-8.249,281.19859,287.82203)" fill="#4b5563"/>
<use data-text="e" xlink:href="#font_10_3" transform="matrix(8.249,0,0,-8.249,285.78504,287.82203)" fill="#4b5563"/>
<use data-text="r" xlink:href="#font_10_13" transform="matrix(8.249,0,0,-8.249,290.3715,287.82203)" fill="#4b5563"/>
<use data-text="s" xlink:href="#font_10_14" transform="matrix(8.249,0,0,-8.249,293.1184,287.82203)" fill="#4b5563"/>
<use data-text="c" xlink:href="#font_10_2" transform="matrix(8.249,0,0,-8.249,297.24293,287.82203)" fill="#4b5563"/>
<use data-text="r" xlink:href="#font_10_13" transform="matrix(8.249,0,0,-8.249,301.36744,287.82203)" fill="#4b5563"/>
<use data-text="i" xlink:href="#font_10_7" transform="matrix(8.249,0,0,-8.249,304.2381,287.82203)" fill="#4b5563"/>
<use data-text="p" xlink:href="#font_10_12" transform="matrix(8.249,0,0,-8.249,306.06938,287.82203)" fill="#4b5563"/>
<use data-text="t" xlink:href="#font_10_15" transform="matrix(8.249,0,0,-8.249,310.65583,287.82203)" fill="#4b5563"/>
<use data-text="i" xlink:href="#font_10_7" transform="matrix(8.249,0,0,-8.249,315.24226,287.82203)" fill="#4b5563"/>
<use data-text="s" xlink:href="#font_10_14" transform="matrix(8.249,0,0,-8.249,317.07353,287.82203)" fill="#4b5563"/>
<use data-text="t" xlink:href="#font_10_15" transform="matrix(8.249,0,0,-8.249,323.49125,287.82203)" fill="#4b5563"/>
<use data-text="h" xlink:href="#font_10_6" transform="matrix(8.249,0,0,-8.249,325.78446,287.82203)" fill="#4b5563"/>
<use data-text="e" xlink:href="#font_10_3" transform="matrix(8.249,0,0,-8.249,330.3709,287.82203)" fill="#4b5563"/>
<use data-text="p" xlink:href="#font_10_12" transform="matrix(8.249,0,0,-8.249,337.25059,287.82203)" fill="#4b5563"/>
<use data-text="a" xlink:href="#font_10_1" transform="matrix(8.249,0,0,-8.249,341.83705,287.82203)" fill="#4b5563"/>
<use data-text="r" xlink:href="#font_10_13" transform="matrix(8.249,0,0,-8.249,346.4235,287.82203)" fill="#4b5563"/>
<use data-text="a" xlink:href="#font_10_1" transform="matrix(8.249,0,0,-8.249,349.08793,287.82203)" fill="#4b5563"/>
<use data-text="m" xlink:href="#font_10_9" transform="matrix(8.249,0,0,-8.249,353.67439,287.82203)" fill="#4b5563"/>
<use data-text="e" xlink:href="#font_10_3" transform="matrix(8.249,0,0,-8.249,360.5458,287.82203)" fill="#4b5563"/>
<use data-text="t" xlink:href="#font_10_15" transform="matrix(8.249,0,0,-8.249,365.13227,287.82203)" fill="#4b5563"/>
<use data-text="e" xlink:href="#font_10_3" transform="matrix(8.249,0,0,-8.249,367.42549,287.82203)" fill="#4b5563"/>
<use data-text="r" xlink:href="#font_10_13" transform="matrix(8.249,0,0,-8.249,372.01194,287.82203)" fill="#4b5563"/>
<use data-text="o" xlink:href="#font_10_11" transform="matrix(8.249,0,0,-8.249,377.05207,287.82203)" fill="#4b5563"/>
<use data-text="f" xlink:href="#font_10_4" transform="matrix(8.249,0,0,-8.249,381.63853,287.82203)" fill="#4b5563"/>
<use data-text="t" xlink:href="#font_10_15" transform="matrix(8.249,0,0,-8.249,386.22496,287.82203)" fill="#4b5563"/>
<use data-text="h" xlink:href="#font_10_6" transform="matrix(8.249,0,0,-8.249,388.51817,287.82203)" fill="#4b5563"/>
<use data-text="e" xlink:href="#font_10_3" transform="matrix(8.249,0,0,-8.249,393.1046,287.82203)" fill="#4b5563"/>
<use data-text="s" xlink:href="#font_10_14" transform="matrix(8.249,0,0,-8.249,399.98429,287.82203)" fill="#4b5563"/>
<use data-text="h" xlink:href="#font_10_6" transform="matrix(8.249,0,0,-8.249,404.1088,287.82203)" fill="#4b5563"/>
<use data-text="i" xlink:href="#font_10_7" transform="matrix(8.249,0,0,-8.249,408.69526,287.82203)" fill="#4b5563"/>
<use data-text="f" xlink:href="#font_10_4" transform="matrix(8.249,0,0,-8.249,410.52653,287.82203)" fill="#4b5563"/>
<use data-text="t" xlink:href="#font_10_15" transform="matrix(8.249,0,0,-8.249,412.81974,287.82203)" fill="#4b5563"/>
</svg>
